<?xml version="1.0" encoding="utf-8"?>
<!-- Generator: Adobe Illustrator 21.1.0, SVG Export Plug-In . SVG Version: 6.00 Build 0)  -->
<svg version="1.1" id="Layer_1" xmlns="http://www.w3.org/2000/svg" xmlns:xlink="http://www.w3.org/1999/xlink" x="0px" y="0px"
	 viewBox="0 0 427.6 250.9" style="enable-background:new 0 0 427.6 250.9;" xml:space="preserve">
<style type="text/css">
	.st0{fill:#38B5E5;}
	.st1{filter:url(#Adobe_OpacityMaskFilter);}
	.st2{opacity:0.5;mask:url(#SVGID_1_);}
	.st3{fill:#F9F9F9;}
	.st4{fill:url(#SVGID_2_);}
	.st5{fill:#FCC070;}
	.st6{fill:#FFFFFF;}
	.st7{fill:#8C4709;}
	.st8{fill:#6D3713;}
	.st9{fill:#6D3713;stroke:#8C4709;stroke-width:4.4705;stroke-miterlimit:10;}
	.st10{opacity:0.1;fill:#8C4709;}
	.st11{fill:#E6E7E8;stroke:#414042;stroke-miterlimit:10;}
	.st12{fill:url(#SVGID_3_);}
	.st13{filter:url(#Adobe_OpacityMaskFilter_1_);}
	.st14{opacity:0.5;mask:url(#SVGID_4_);}
	.st15{fill:url(#SVGID_5_);}
	.st16{fill:url(#SVGID_6_);}
	.st17{filter:url(#Adobe_OpacityMaskFilter_2_);}
	.st18{opacity:0.5;mask:url(#SVGID_7_);}
	.st19{fill:url(#SVGID_8_);}
	.st20{fill:#D3CCC7;}
	.st21{fill:url(#SVGID_9_);}
	.st22{fill:none;stroke:#59371F;stroke-width:3.8076;stroke-linecap:square;stroke-miterlimit:10;}
	.st23{fill:#59371F;}
	.st24{fill:#F1F2F2;}
	.st25{fill:#BBCC9E;}
	.st26{fill:url(#SVGID_10_);}
	.st27{fill:none;stroke:#753103;stroke-width:3.8076;stroke-linecap:square;stroke-miterlimit:10;}
	.st28{fill:#753103;}
	.st29{fill:#FFFFFF;stroke:#753103;stroke-width:1.1471;stroke-linecap:square;stroke-miterlimit:10;}
	.st30{fill:url(#SVGID_11_);}
	.st31{opacity:0.5;fill:#CEC919;}
	.st32{fill:#99967A;}
	.st33{fill:url(#SVGID_12_);}
	.st34{fill:url(#SVGID_13_);}
	.st35{filter:url(#Adobe_OpacityMaskFilter_3_);}
	.st36{opacity:0.5;mask:url(#SVGID_14_);}
	.st37{fill:url(#SVGID_15_);}
	.st38{fill:url(#SVGID_16_);}
	.st39{fill:#19CE5A;}
	.st40{filter:url(#Adobe_OpacityMaskFilter_4_);}
	.st41{opacity:0.5;mask:url(#SVGID_17_);}
	.st42{fill:url(#SVGID_18_);}
	.st43{fill:url(#SVGID_19_);}
	.st44{fill:url(#SVGID_20_);}
	.st45{fill:#19BDCE;}
	.st46{filter:url(#Adobe_OpacityMaskFilter_5_);}
	.st47{opacity:0.5;mask:url(#SVGID_21_);}
	.st48{fill:url(#SVGID_22_);}
	.st49{fill:#13A543;}
	.st50{fill:url(#SVGID_23_);}
	.st51{fill:url(#SVGID_24_);}
	.st52{fill:url(#SVGID_25_);}
	.st53{fill:url(#SVGID_26_);}
	.st54{fill:url(#SVGID_27_);}
	.st55{fill:url(#SVGID_28_);}
	.st56{fill:url(#SVGID_29_);}
	.st57{fill:url(#SVGID_30_);}
	.st58{fill:url(#SVGID_31_);}
	.st59{fill:url(#SVGID_32_);}
	.st60{fill:url(#SVGID_33_);}
	.st61{fill:url(#SVGID_34_);}
	.st62{fill:url(#SVGID_35_);}
	.st63{fill:url(#SVGID_36_);}
	.st64{fill:url(#SVGID_37_);}
	.st65{fill:url(#SVGID_38_);}
	.st66{fill:url(#SVGID_39_);}
	.st67{fill:url(#SVGID_40_);}
	.st68{fill:url(#SVGID_41_);}
	.st69{fill:url(#SVGID_42_);}
	.st70{fill:url(#SVGID_43_);}
	.st71{fill:url(#SVGID_44_);}
	.st72{fill:#CEC919;}
	.st73{opacity:0.5;fill:#B7AF1A;}
	.st74{fill:url(#SVGID_45_);}
	.st75{fill:#0C7277;}
	.st76{fill:#10818C;}
	.st77{fill:url(#SVGID_46_);}
	.st78{fill:none;stroke:#FFFFFF;stroke-width:0.9712;stroke-miterlimit:10;}
	.st79{fill:url(#SVGID_47_);}
	.st80{fill:url(#SVGID_48_);}
	.st81{fill:url(#SVGID_49_);}
	.st82{fill:url(#SVGID_50_);}
	.st83{fill:url(#SVGID_51_);}
	.st84{filter:url(#Adobe_OpacityMaskFilter_6_);}
	.st85{opacity:0.5;mask:url(#SVGID_52_);}
	.st86{fill:url(#SVGID_53_);}
	.st87{fill:url(#SVGID_54_);}
	.st88{fill:url(#SVGID_55_);}
	.st89{filter:url(#Adobe_OpacityMaskFilter_7_);}
	.st90{opacity:0.5;mask:url(#SVGID_56_);}
	.st91{fill:url(#SVGID_57_);}
	.st92{fill:url(#SVGID_58_);}
	.st93{fill:url(#SVGID_59_);}
	.st94{fill:url(#SVGID_60_);}
	.st95{fill:url(#SVGID_61_);}
	.st96{fill:url(#SVGID_62_);}
	.st97{fill:url(#SVGID_63_);}
	.st98{fill:url(#SVGID_64_);}
	.st99{fill:url(#SVGID_65_);}
	.st100{fill:url(#SVGID_66_);}
	.st101{fill:url(#SVGID_67_);}
	.st102{fill:url(#SVGID_68_);}
	.st103{fill:url(#SVGID_69_);}
	.st104{fill:url(#SVGID_70_);}
	.st105{fill:url(#SVGID_71_);}
	.st106{fill:url(#SVGID_72_);}
	.st107{fill:url(#SVGID_73_);}
	.st108{fill:url(#SVGID_74_);}
	.st109{fill:url(#SVGID_75_);}
	.st110{fill:url(#SVGID_76_);}
	.st111{fill:url(#SVGID_77_);}
	.st112{fill:url(#SVGID_78_);}
	.st113{fill:url(#SVGID_79_);}
	.st114{fill:url(#SVGID_80_);}
	.st115{fill:url(#SVGID_81_);}
	.st116{fill:url(#SVGID_82_);}
	.st117{fill:url(#SVGID_83_);}
	.st118{fill:url(#SVGID_84_);}
	.st119{fill:url(#SVGID_85_);}
	.st120{fill:url(#SVGID_86_);}
	.st121{filter:url(#Adobe_OpacityMaskFilter_8_);}
	.st122{opacity:0.5;mask:url(#SVGID_87_);}
	.st123{fill:#F7941D;}
	.st124{fill:#C2B59B;}
	.st125{fill:#FBB040;}
	.st126{fill:#CC83AE;}
	.st127{fill:#9B7A1F;}
	.st128{fill:#050505;}
	.st129{filter:url(#Adobe_OpacityMaskFilter_9_);}
	.st130{opacity:0.5;mask:url(#SVGID_88_);}
	.st131{fill-rule:evenodd;clip-rule:evenodd;fill:#BEE4F0;}
	.st132{fill:#BEE4F0;}
	.st133{fill-rule:evenodd;clip-rule:evenodd;fill:url(#SVGID_89_);}
	.st134{fill-rule:evenodd;clip-rule:evenodd;fill:url(#SVGID_90_);}
	.st135{fill:url(#SVGID_91_);}
	.st136{fill:url(#SVGID_92_);}
	.st137{fill:url(#SVGID_93_);}
	.st138{fill:#A7A9AC;}
	.st139{fill:#CE1949;}
	.st140{fill:#BA1749;}
	.st141{fill:#1795D0;}
	.st142{fill:#117CAE;}
	.st143{filter:url(#Adobe_OpacityMaskFilter_10_);}
	.st144{opacity:0.75;mask:url(#SVGID_94_);}
	.st145{fill:url(#SVGID_95_);}
	.st146{fill:url(#SVGID_96_);}
	.st147{fill:#EAD93B;}
	.st148{fill:none;stroke:#914F13;stroke-width:1.5;stroke-linecap:round;stroke-miterlimit:10;}
	.st149{fill:#914F13;}
	.st150{fill:#231F20;}
	.st151{fill:none;stroke:#414042;stroke-width:5.4063;stroke-miterlimit:10;}
	.st152{filter:url(#Adobe_OpacityMaskFilter_11_);}
	.st153{opacity:0.55;mask:url(#SVGID_97_);}
	.st154{fill:none;stroke:#FFFFFF;stroke-width:5.4063;stroke-miterlimit:10;}
	.st155{fill:#414042;}
	.st156{fill:#F1F2F2;stroke:#000000;stroke-width:3.4864;stroke-miterlimit:10;}
	.st157{fill:#6D6E71;}
	.st158{opacity:0.5;fill:#19BDCE;}
	.st159{opacity:0.5;fill:#19CE5A;}
	.st160{fill:#D1D3D4;}
	.st161{opacity:0.95;fill:#8CE6AC;}
	.st162{fill:#043464;}
	.st163{opacity:0.8;fill:#FFFFFF;}
	.st164{fill:url(#SVGID_98_);}
	.st165{fill:url(#SVGID_99_);}
	.st166{fill:url(#SVGID_100_);}
	.st167{fill:url(#SVGID_101_);}
	.st168{fill:url(#SVGID_102_);}
	.st169{opacity:0.5;fill:#CE7419;}
	.st170{opacity:0.5;}
	.st171{fill:#CE7419;}
	.st172{fill:#68300B;}
	.st173{opacity:0.3;fill:#10818C;}
	.st174{fill:#148D93;}
	.st175{fill:url(#SVGID_103_);}
	.st176{fill:#11676B;}
	.st177{fill:url(#SVGID_104_);}
	.st178{fill:#D3C8AE;}
	.st179{fill:url(#SVGID_105_);}
	.st180{fill:#603913;}
	.st181{opacity:0.85;fill:url(#SVGID_106_);}
	.st182{opacity:0.85;fill:url(#SVGID_107_);}
	.st183{fill:#E6E7E8;}
	.st184{fill:url(#SVGID_108_);}
	.st185{fill:url(#SVGID_109_);}
	.st186{opacity:0.2;fill:none;stroke:#A7A9AC;stroke-width:0.3871;stroke-miterlimit:10;}
	.st187{fill:url(#SVGID_110_);}
	.st188{fill:url(#SVGID_111_);}
	.st189{opacity:0.85;fill:url(#SVGID_112_);}
	.st190{opacity:0.85;fill:url(#SVGID_113_);}
	.st191{opacity:0.1;fill:#CEC919;}
	.st192{fill:url(#SVGID_114_);}
	.st193{opacity:0.85;fill:url(#SVGID_115_);}
	.st194{opacity:0.85;fill:url(#SVGID_116_);}
	.st195{fill:url(#SVGID_117_);}
	.st196{fill:url(#SVGID_118_);}
	.st197{filter:url(#Adobe_OpacityMaskFilter_12_);}
	.st198{opacity:0.75;mask:url(#SVGID_119_);}
	.st199{fill:url(#SVGID_120_);}
	.st200{fill:#B51848;}
	.st201{opacity:0.8;}
	.st202{fill:url(#SVGID_121_);stroke:#BC6619;stroke-width:1.9011;stroke-linejoin:round;stroke-miterlimit:10;}
	.st203{fill:url(#SVGID_122_);}
	.st204{fill:url(#SVGID_123_);}
	
		.st205{fill:url(#SVGID_124_);stroke:#BC6619;stroke-width:1.9011;stroke-linecap:round;stroke-linejoin:round;stroke-miterlimit:10;}
	.st206{fill:none;}
	.st207{fill:#754C29;}
	.st208{filter:url(#Adobe_OpacityMaskFilter_13_);}
	.st209{opacity:0.75;mask:url(#SVGID_125_);}
	.st210{fill:#664024;}
	.st211{opacity:0.6;fill:#FFFFFF;}
	.st212{fill:none;stroke:#FFFFFF;stroke-width:0.8502;stroke-miterlimit:10;}
	.st213{fill:#4D7C37;}
	.st214{fill:#999697;}
	.st215{fill:#BCBCBC;}
	.st216{fill:#B2B1B1;}
	.st217{opacity:0.3;}
	.st218{opacity:0.8;fill:#19CE5A;}
	.st219{opacity:0.8;fill:#F9F1D7;}
	.st220{opacity:0.8;fill:#A7A9AC;}
	.st221{fill:#A97C50;}
	.st222{fill:#C49A6C;}
	.st223{opacity:0.6;fill:#C2B59B;}
	.st224{fill:url(#SVGID_126_);}
	.st225{fill:url(#SVGID_127_);}
	.st226{fill:url(#SVGID_128_);}
	.st227{fill:url(#SVGID_129_);}
	.st228{opacity:0.2;fill:#FFFFFF;}
	.st229{opacity:0.8;fill:#939598;}
	.st230{filter:url(#Adobe_OpacityMaskFilter_14_);}
	.st231{opacity:0.75;mask:url(#SVGID_130_);}
	.st232{opacity:0.2;fill:#043464;}
	.st233{opacity:0.5;fill:#FFFFFF;}
	.st234{fill:url(#SVGID_131_);}
	.st235{fill:url(#SVGID_132_);}
	.st236{fill:url(#SVGID_133_);}
	.st237{opacity:0.2;fill:none;stroke:#A7A9AC;stroke-miterlimit:10;}
	.st238{filter:url(#Adobe_OpacityMaskFilter_15_);}
	.st239{opacity:0.75;mask:url(#SVGID_134_);}
	.st240{fill:none;stroke:#939598;stroke-width:4;stroke-linecap:round;stroke-miterlimit:10;}
	.st241{fill:#58595B;}
	.st242{filter:url(#Adobe_OpacityMaskFilter_16_);}
	.st243{opacity:0.75;mask:url(#SVGID_135_);}
	.st244{filter:url(#Adobe_OpacityMaskFilter_17_);}
	.st245{opacity:0.75;mask:url(#SVGID_136_);}
	.st246{fill:url(#SVGID_137_);}
	.st247{fill:url(#SVGID_138_);}
	.st248{fill:url(#SVGID_139_);}
	.st249{filter:url(#Adobe_OpacityMaskFilter_18_);}
	.st250{opacity:0.75;mask:url(#SVGID_140_);}
	.st251{filter:url(#Adobe_OpacityMaskFilter_19_);}
	.st252{opacity:0.75;mask:url(#SVGID_141_);}
	.st253{fill:url(#SVGID_142_);}
	.st254{fill:url(#SVGID_143_);}
	.st255{fill:url(#SVGID_144_);}
	.st256{fill:#0A6FA2;}
	.st257{filter:url(#Adobe_OpacityMaskFilter_20_);}
	.st258{opacity:0.75;mask:url(#SVGID_145_);}
	.st259{fill:#0A70A3;}
	.st260{filter:url(#Adobe_OpacityMaskFilter_21_);}
	.st261{opacity:0.75;mask:url(#SVGID_146_);}
	.st262{filter:url(#Adobe_OpacityMaskFilter_22_);}
	.st263{opacity:0.75;mask:url(#SVGID_147_);}
	.st264{filter:url(#Adobe_OpacityMaskFilter_23_);}
	.st265{opacity:0.75;mask:url(#SVGID_148_);}
	.st266{filter:url(#Adobe_OpacityMaskFilter_24_);}
	.st267{opacity:0.75;mask:url(#SVGID_149_);}
	.st268{fill:none;stroke:#FFFFFF;stroke-miterlimit:10;}
	.st269{fill:none;stroke:#043464;stroke-width:0.5;stroke-miterlimit:10;}
	.st270{fill:none;stroke:#C1272D;stroke-miterlimit:10;}
	.st271{fill:#821921;}
	.st272{opacity:0.8;fill:url(#SVGID_150_);}
	.st273{opacity:0.6;fill:url(#SVGID_151_);}
	.st274{opacity:0.6;fill:url(#SVGID_152_);}
	.st275{opacity:0.6;fill:url(#SVGID_153_);}
	.st276{opacity:0.9;fill:url(#SVGID_154_);}
	.st277{fill:url(#SVGID_155_);}
	.st278{fill:url(#SVGID_156_);}
	.st279{fill:none;stroke:#CE1949;stroke-width:3.7418;stroke-miterlimit:10;}
	.st280{fill:url(#SVGID_157_);}
	.st281{opacity:0.85;}
</style>
<path class="st233" d="M7.6,53.6c-4.2,13.1-15,60.8,0.5,65.8c16.5,5.3,30.9-8.1,40.9-24.3l86,21.7c-7.9,6-13.5,14.4-16.1,24.1
	c-3,11.5-1.4,23.5,4.6,33.8c5.6,9.6,14.3,16.6,24.8,19.9c0.8,0.3,1.6,0.5,2.4,0.7l56.6,14.8l-2.1,6.5c-1.3,4.1,0.9,8.5,5,9.8
	c4.1,1.3,8.5-0.9,9.8-5l2.3-7.3l22.9,6l-2.7,8.5c-1.3,4.1,0.9,8.5,5,9.8c4.1,1.3,8.5-0.9,9.8-5l3-9.3l22.9,6l-3.4,10.5
	c-1.3,4.1,0.9,8.5,5,9.8c4.1,1.3,8.5-0.9,9.8-5l3.6-11.4l17.2,4.5c11.5,3,23.5,1.4,33.8-4.6c10.3-6,17.6-15.7,20.6-27.2
	c2.9-10.9,1.4-22-3.3-31.4l18.9,4.8L410,211l17.6-54.8l-38.1,12.4l-62.2-23.8l5.8-18l0.4,0.1c4.1,1.3,8.5-0.9,9.8-5s-0.9-8.5-5-9.8
	l-15.7-5c-4.1-1.3-8.5,0.9-9.8,5s0.9,8.5,5,9.8l0.4,0.1l-5.5,17.2l-22.2-8.5l5.1-16l0.4,0.1c4.1,1.3,8.5-0.9,9.8-5
	c1.3-4.1-0.9-8.5-5-9.8l-15.7-5c-4.1-1.3-8.5,0.9-9.8,5c-1.3,4.1,0.9,8.5,5,9.8l0.4,0.1l-4.9,15.1l-22.2-8.5l4.5-13.9l0.4,0.1
	c4.1,1.3,8.5-0.9,9.8-5c1.3-4.1-0.9-8.5-5-9.8l-15.7-5c-4.1-1.3-8.5,0.9-9.8,5c-1.3,4.1,0.9,8.5,5,9.8l0.4,0.1l-4.2,13.1L65.2,44.4
	c1.4-19-2.4-38.7-18.9-44C30.8-4.6,11.8,40.5,7.6,53.6z M303.4,219.2l17.7-55.2l13.3,3.5c0.5,0.1,1,0.3,1.5,0.4
	c14.5,4.7,23.1,20,19.1,34.9c-2,7.5-6.7,13.8-13.4,17.7c-6.7,3.9-14.5,5-22,3L303.4,219.2z M265.3,209.2l17.7-55l23,5.8l-17.7,55.2
	L265.3,209.2z M227.2,199.2l17.6-54.7l23,5.8l-17.6,54.9L227.2,199.2z M160.7,123.3l69,17.4l-17.5,54.6l-57.4-15
	c-7.5-2-13.8-6.7-17.7-13.4c-3.9-6.7-5-14.5-3-22c2-7.5,6.7-13.8,13.4-17.7C151.5,124.8,156,123.5,160.7,123.3z"/>
</svg>
