<?xml version="1.0" encoding="utf-8"?>
<!-- Generator: Adobe Illustrator 23.0.0, SVG Export Plug-In . SVG Version: 6.00 Build 0)  -->
<svg version="1.1" id="Layer_1" xmlns="http://www.w3.org/2000/svg" xmlns:xlink="http://www.w3.org/1999/xlink" x="0px" y="0px"
	 viewBox="0 0 226.2 105.7" style="enable-background:new 0 0 226.2 105.7;" xml:space="preserve">
<style type="text/css">
	.st0{opacity:0.6;fill:url(#SVGID_1_);}
	.st1{fill:#38B5E5;}
	.st2{filter:url(#Adobe_OpacityMaskFilter);}
	.st3{opacity:0.5;mask:url(#SVGID_2_);}
	.st4{fill:#F9F9F9;}
	.st5{fill:url(#SVGID_3_);}
	.st6{fill:#FCC070;}
	.st7{fill:#FFFFFF;}
	.st8{fill:#8C4709;}
	.st9{fill:#6D3713;}
	.st10{fill:#6D3713;stroke:#8C4709;stroke-width:4.4705;stroke-miterlimit:10;}
	.st11{opacity:0.1;fill:#8C4709;}
	.st12{fill:#E6E7E8;stroke:#414042;stroke-miterlimit:10;}
	.st13{fill:url(#SVGID_4_);}
	.st14{filter:url(#Adobe_OpacityMaskFilter_1_);}
	.st15{opacity:0.5;mask:url(#SVGID_5_);}
	.st16{fill:url(#SVGID_6_);}
	.st17{fill:url(#SVGID_7_);}
	.st18{filter:url(#Adobe_OpacityMaskFilter_2_);}
	.st19{opacity:0.5;mask:url(#SVGID_8_);}
	.st20{fill:url(#SVGID_9_);}
	.st21{fill:#D3CCC7;}
	.st22{fill:url(#SVGID_10_);}
	.st23{fill:none;stroke:#59371F;stroke-width:3.8076;stroke-linecap:square;stroke-miterlimit:10;}
	.st24{fill:#59371F;}
	.st25{fill:#F1F2F2;}
	.st26{fill:#BBCC9E;}
	.st27{fill:url(#SVGID_11_);}
	.st28{fill:none;stroke:#753103;stroke-width:3.8076;stroke-linecap:square;stroke-miterlimit:10;}
	.st29{fill:#753103;}
	.st30{fill:#FFFFFF;stroke:#753103;stroke-width:1.1471;stroke-linecap:square;stroke-miterlimit:10;}
	.st31{fill:url(#SVGID_12_);}
	.st32{opacity:0.5;fill:#CEC919;}
	.st33{fill:#99967A;}
	.st34{fill:url(#SVGID_13_);}
	.st35{fill:url(#SVGID_14_);}
	.st36{filter:url(#Adobe_OpacityMaskFilter_3_);}
	.st37{opacity:0.5;mask:url(#SVGID_15_);}
	.st38{fill:url(#SVGID_16_);}
	.st39{fill:url(#SVGID_17_);}
	.st40{fill:#19CE5A;}
	.st41{filter:url(#Adobe_OpacityMaskFilter_4_);}
	.st42{opacity:0.5;mask:url(#SVGID_18_);}
	.st43{fill:url(#SVGID_19_);}
	.st44{fill:url(#SVGID_20_);}
	.st45{fill:url(#SVGID_21_);}
	.st46{fill:#19BDCE;}
	.st47{filter:url(#Adobe_OpacityMaskFilter_5_);}
	.st48{opacity:0.5;mask:url(#SVGID_22_);}
	.st49{fill:url(#SVGID_23_);}
	.st50{fill:#13A543;}
	.st51{fill:url(#SVGID_24_);}
	.st52{fill:url(#SVGID_25_);}
	.st53{fill:url(#SVGID_26_);}
	.st54{fill:url(#SVGID_27_);}
	.st55{fill:url(#SVGID_28_);}
	.st56{fill:url(#SVGID_29_);}
	.st57{fill:url(#SVGID_30_);}
	.st58{fill:url(#SVGID_31_);}
	.st59{fill:url(#SVGID_32_);}
	.st60{fill:url(#SVGID_33_);}
	.st61{fill:url(#SVGID_34_);}
	.st62{fill:url(#SVGID_35_);}
	.st63{fill:url(#SVGID_36_);}
	.st64{fill:url(#SVGID_37_);}
	.st65{fill:url(#SVGID_38_);}
	.st66{fill:url(#SVGID_39_);}
	.st67{fill:url(#SVGID_40_);}
	.st68{fill:url(#SVGID_41_);}
	.st69{fill:url(#SVGID_42_);}
	.st70{fill:url(#SVGID_43_);}
	.st71{fill:url(#SVGID_44_);}
	.st72{fill:url(#SVGID_45_);}
	.st73{fill:#CEC919;}
	.st74{opacity:0.5;fill:#B7AF1A;}
	.st75{fill:url(#SVGID_46_);}
	.st76{fill:#0C7277;}
	.st77{fill:#10818C;}
	.st78{fill:url(#SVGID_47_);}
	.st79{fill:none;stroke:#FFFFFF;stroke-width:0.9712;stroke-miterlimit:10;}
	.st80{fill:url(#SVGID_48_);}
	.st81{fill:url(#SVGID_49_);}
	.st82{fill:url(#SVGID_50_);}
	.st83{fill:url(#SVGID_51_);}
	.st84{fill:url(#SVGID_52_);}
	.st85{filter:url(#Adobe_OpacityMaskFilter_6_);}
	.st86{opacity:0.5;mask:url(#SVGID_53_);}
	.st87{fill:url(#SVGID_54_);}
	.st88{fill:url(#SVGID_55_);}
	.st89{fill:url(#SVGID_56_);}
	.st90{filter:url(#Adobe_OpacityMaskFilter_7_);}
	.st91{opacity:0.5;mask:url(#SVGID_57_);}
	.st92{fill:url(#SVGID_58_);}
	.st93{fill:url(#SVGID_59_);}
	.st94{fill:url(#SVGID_60_);}
	.st95{fill:url(#SVGID_61_);}
	.st96{fill:url(#SVGID_62_);}
	.st97{fill:url(#SVGID_63_);}
	.st98{fill:url(#SVGID_64_);}
	.st99{fill:url(#SVGID_65_);}
	.st100{fill:url(#SVGID_66_);}
	.st101{fill:url(#SVGID_67_);}
	.st102{fill:url(#SVGID_68_);}
	.st103{fill:url(#SVGID_69_);}
	.st104{fill:url(#SVGID_70_);}
	.st105{fill:url(#SVGID_71_);}
	.st106{fill:url(#SVGID_72_);}
	.st107{fill:url(#SVGID_73_);}
	.st108{fill:url(#SVGID_74_);}
	.st109{fill:url(#SVGID_75_);}
	.st110{fill:url(#SVGID_76_);}
	.st111{fill:url(#SVGID_77_);}
	.st112{fill:url(#SVGID_78_);}
	.st113{fill:url(#SVGID_79_);}
	.st114{fill:url(#SVGID_80_);}
	.st115{fill:url(#SVGID_81_);}
	.st116{fill:url(#SVGID_82_);}
	.st117{fill:url(#SVGID_83_);}
	.st118{fill:url(#SVGID_84_);}
	.st119{fill:url(#SVGID_85_);}
	.st120{fill:url(#SVGID_86_);}
	.st121{fill:url(#SVGID_87_);}
	.st122{filter:url(#Adobe_OpacityMaskFilter_8_);}
	.st123{opacity:0.5;mask:url(#SVGID_88_);}
	.st124{fill:#F7941D;}
	.st125{fill:#C2B59B;}
	.st126{fill:#FBB040;}
	.st127{fill:#CC83AE;}
	.st128{fill:#9B7A1F;}
	.st129{fill:#050505;}
	.st130{filter:url(#Adobe_OpacityMaskFilter_9_);}
	.st131{opacity:0.5;mask:url(#SVGID_89_);}
	.st132{fill-rule:evenodd;clip-rule:evenodd;fill:#BEE4F0;}
	.st133{fill:#BEE4F0;}
	.st134{fill-rule:evenodd;clip-rule:evenodd;fill:url(#SVGID_90_);}
	.st135{fill-rule:evenodd;clip-rule:evenodd;fill:url(#SVGID_91_);}
	.st136{fill:url(#SVGID_92_);}
	.st137{fill:url(#SVGID_93_);}
	.st138{fill:url(#SVGID_94_);}
	.st139{fill:#A7A9AC;}
	.st140{fill:#CE1949;}
	.st141{fill:#BA1749;}
	.st142{fill:#1795D0;}
	.st143{fill:#117CAE;}
	.st144{filter:url(#Adobe_OpacityMaskFilter_10_);}
	.st145{opacity:0.75;mask:url(#SVGID_95_);}
	.st146{fill:url(#SVGID_96_);}
	.st147{fill:url(#SVGID_97_);}
	.st148{fill:#EAD93B;}
	.st149{fill:none;stroke:#914F13;stroke-width:1.5;stroke-linecap:round;stroke-miterlimit:10;}
	.st150{fill:#914F13;}
	.st151{opacity:0.8;fill:#FFFFFF;}
	.st152{fill:url(#SVGID_98_);}
	.st153{fill:url(#SVGID_99_);}
	.st154{fill:url(#SVGID_100_);}
	.st155{fill:url(#SVGID_101_);}
	.st156{fill:url(#SVGID_102_);}
	.st157{opacity:0.5;fill:#CE7419;}
	.st158{opacity:0.5;}
	.st159{fill:#CE7419;}
	.st160{fill:#68300B;}
	.st161{opacity:0.3;fill:#10818C;}
	.st162{fill:#148D93;}
	.st163{fill:url(#SVGID_103_);}
	.st164{fill:#11676B;}
	.st165{fill:url(#SVGID_104_);}
	.st166{fill:#D3C8AE;}
	.st167{fill:url(#SVGID_105_);}
	.st168{fill:#603913;}
	.st169{opacity:0.85;fill:url(#SVGID_106_);}
	.st170{opacity:0.85;fill:url(#SVGID_107_);}
	.st171{fill:#E6E7E8;}
	.st172{fill:url(#SVGID_108_);}
	.st173{fill:url(#SVGID_109_);}
	.st174{opacity:0.2;fill:none;stroke:#A7A9AC;stroke-width:0.3871;stroke-miterlimit:10;}
	.st175{fill:url(#SVGID_110_);}
	.st176{fill:url(#SVGID_111_);}
	.st177{opacity:0.85;fill:url(#SVGID_112_);}
	.st178{opacity:0.85;fill:url(#SVGID_113_);}
	.st179{opacity:0.1;fill:#CEC919;}
	.st180{fill:url(#SVGID_114_);}
	.st181{opacity:0.85;fill:url(#SVGID_115_);}
	.st182{opacity:0.85;fill:url(#SVGID_116_);}
	.st183{fill:url(#SVGID_117_);}
	.st184{fill:url(#SVGID_118_);}
	.st185{filter:url(#Adobe_OpacityMaskFilter_11_);}
	.st186{opacity:0.75;mask:url(#SVGID_119_);}
	.st187{fill:url(#SVGID_120_);}
	.st188{fill:#231F20;}
	.st189{fill:#B51848;}
	.st190{opacity:0.8;}
	.st191{fill:url(#SVGID_121_);stroke:#BC6619;stroke-width:1.9011;stroke-linejoin:round;stroke-miterlimit:10;}
	.st192{fill:url(#SVGID_122_);}
	.st193{fill:url(#SVGID_123_);}
	
		.st194{fill:url(#SVGID_124_);stroke:#BC6619;stroke-width:1.9011;stroke-linecap:round;stroke-linejoin:round;stroke-miterlimit:10;}
	.st195{fill:none;}
	.st196{fill:#754C29;}
	.st197{filter:url(#Adobe_OpacityMaskFilter_12_);}
	.st198{opacity:0.75;mask:url(#SVGID_125_);}
	.st199{fill:#664024;}
	.st200{opacity:0.6;fill:#FFFFFF;}
	.st201{fill:none;stroke:#FFFFFF;stroke-width:0.8502;stroke-miterlimit:10;}
	.st202{fill:#4D7C37;}
	.st203{fill:#999697;}
	.st204{fill:#BCBCBC;}
	.st205{fill:#B2B1B1;}
	.st206{opacity:0.3;}
	.st207{opacity:0.8;fill:#19CE5A;}
	.st208{opacity:0.8;fill:#F9F1D7;}
	.st209{opacity:0.8;fill:#A7A9AC;}
	.st210{fill:#A97C50;}
	.st211{fill:#C49A6C;}
	.st212{opacity:0.6;fill:#C2B59B;}
	.st213{fill:url(#SVGID_126_);}
	.st214{fill:url(#SVGID_127_);}
	.st215{fill:url(#SVGID_128_);}
	.st216{fill:url(#SVGID_129_);}
	.st217{opacity:0.2;fill:#FFFFFF;}
	.st218{opacity:0.8;fill:#939598;}
	.st219{filter:url(#Adobe_OpacityMaskFilter_13_);}
	.st220{opacity:0.75;mask:url(#SVGID_130_);}
	.st221{opacity:0.2;fill:#043464;}
	.st222{opacity:0.5;fill:#FFFFFF;}
	.st223{fill:url(#SVGID_131_);}
	.st224{fill:url(#SVGID_132_);}
	.st225{fill:url(#SVGID_133_);}
	.st226{opacity:0.2;fill:none;stroke:#A7A9AC;stroke-miterlimit:10;}
	.st227{filter:url(#Adobe_OpacityMaskFilter_14_);}
	.st228{opacity:0.75;mask:url(#SVGID_134_);}
	.st229{fill:none;stroke:#939598;stroke-width:4;stroke-linecap:round;stroke-miterlimit:10;}
	.st230{filter:url(#Adobe_OpacityMaskFilter_15_);}
	.st231{opacity:0.75;mask:url(#SVGID_135_);}
	.st232{filter:url(#Adobe_OpacityMaskFilter_16_);}
	.st233{opacity:0.75;mask:url(#SVGID_136_);}
	.st234{fill:url(#SVGID_137_);}
	.st235{fill:url(#SVGID_138_);}
	.st236{fill:url(#SVGID_139_);}
	.st237{filter:url(#Adobe_OpacityMaskFilter_17_);}
	.st238{opacity:0.75;mask:url(#SVGID_140_);}
	.st239{filter:url(#Adobe_OpacityMaskFilter_18_);}
	.st240{opacity:0.75;mask:url(#SVGID_141_);}
	.st241{fill:#58595B;}
	.st242{fill:url(#SVGID_142_);}
	.st243{fill:url(#SVGID_143_);}
	.st244{fill:url(#SVGID_144_);}
	.st245{fill:none;stroke:#FFFFFF;stroke-miterlimit:10;}
	.st246{fill:none;stroke:#043464;stroke-width:0.5;stroke-miterlimit:10;}
	.st247{fill:none;stroke:#C1272D;stroke-miterlimit:10;}
	.st248{opacity:0.8;fill:url(#SVGID_145_);}
	.st249{opacity:0.8;fill:url(#SVGID_146_);}
	.st250{opacity:0.6;fill:url(#SVGID_147_);}
	.st251{opacity:0.6;fill:url(#SVGID_148_);}
	.st252{opacity:0.6;fill:url(#SVGID_149_);}
	.st253{opacity:0.6;fill:url(#SVGID_150_);}
	.st254{opacity:0.6;fill:url(#SVGID_151_);}
	.st255{opacity:0.9;fill:url(#SVGID_152_);}
	.st256{opacity:0.9;fill:url(#SVGID_153_);}
	.st257{fill:url(#SVGID_154_);}
	.st258{fill:url(#SVGID_155_);}
	.st259{fill:none;stroke:#CE1949;stroke-width:3.7418;stroke-miterlimit:10;}
	.st260{fill:url(#SVGID_156_);}
	.st261{fill:#0A6FA2;}
	.st262{fill:#043464;}
	.st263{fill:url(#SVGID_157_);}
	.st264{fill:url(#SVGID_158_);}
	.st265{opacity:0.7;}
	.st266{fill:url(#SVGID_159_);}
	.st267{fill:#CECDC4;}
	.st268{fill:#DBDAD1;}
	.st269{fill:none;stroke:#4BC133;stroke-miterlimit:10;}
	.st270{opacity:0.6;fill:url(#SVGID_160_);}
	.st271{opacity:0.7;fill:url(#SVGID_161_);}
	.st272{fill:url(#SVGID_162_);}
	.st273{fill:url(#SVGID_163_);}
	.st274{fill:url(#SVGID_164_);}
	.st275{filter:url(#Adobe_OpacityMaskFilter_19_);}
	.st276{opacity:0.75;mask:url(#SVGID_165_);}
	.st277{fill:url(#SVGID_166_);}
	.st278{fill:url(#SVGID_167_);}
	.st279{fill:none;stroke:#0C75A9;stroke-miterlimit:10;}
	.st280{fill:none;stroke:#0C75A9;stroke-width:0.9631;stroke-miterlimit:10;}
	.st281{opacity:0.6;fill:url(#SVGID_168_);}
	.st282{opacity:0.6;fill:url(#SVGID_169_);}
	.st283{opacity:0.85;fill:#FFFFFF;}
	.st284{fill:#AF8C74;}
	.st285{fill:#C1A691;}
	.st286{fill:#0C75A9;}
	.st287{fill:none;stroke:#CEC919;stroke-width:1.2016;stroke-miterlimit:10;}
	.st288{fill:#301207;}
	.st289{fill:#D1D3D4;}
	.st290{fill:#D8C0AB;}
	.st291{fill:#9B3151;}
	.st292{fill:#D8BAA4;}
	.st293{fill:#826E5D;}
	.st294{fill:#AD9989;}
	.st295{fill:none;stroke:#043464;stroke-width:0.6775;stroke-miterlimit:10;}
	.st296{fill:#8C7462;}
	.st297{fill:#0A70A3;}
	.st298{fill:none;stroke:#CEC919;stroke-width:0.6641;stroke-miterlimit:10;}
	.st299{fill:none;stroke:#414042;stroke-width:5.4063;stroke-miterlimit:10;}
	.st300{filter:url(#Adobe_OpacityMaskFilter_20_);}
	.st301{opacity:0.55;mask:url(#SVGID_170_);}
	.st302{fill:none;stroke:#FFFFFF;stroke-width:5.4063;stroke-miterlimit:10;}
	.st303{fill:#414042;}
	.st304{fill:#F1F2F2;stroke:#000000;stroke-width:3.4864;stroke-miterlimit:10;}
	.st305{fill:#6D6E71;}
	.st306{opacity:0.5;fill:#19BDCE;}
	.st307{opacity:0.5;fill:#19CE5A;}
	.st308{opacity:0.95;fill:#8CE6AC;}
	.st309{filter:url(#Adobe_OpacityMaskFilter_21_);}
	.st310{opacity:0.75;mask:url(#SVGID_171_);}
	.st311{fill:url(#SVGID_172_);}
	.st312{fill:#A8A8A8;}
	.st313{fill:#68580B;}
	.st314{fill:url(#SVGID_173_);}
	.st315{fill:url(#SVGID_174_);}
	.st316{fill:url(#SVGID_175_);}
	.st317{opacity:0.1;fill:#939598;}
	.st318{opacity:0.7;fill:url(#SVGID_176_);}
	.st319{opacity:0.75;fill:#FFFFFF;}
	.st320{filter:url(#Adobe_OpacityMaskFilter_22_);}
	.st321{opacity:0.75;mask:url(#SVGID_177_);}
	.st322{filter:url(#Adobe_OpacityMaskFilter_23_);}
	.st323{opacity:0.75;mask:url(#SVGID_178_);}
	.st324{filter:url(#Adobe_OpacityMaskFilter_24_);}
	.st325{opacity:0.75;mask:url(#SVGID_179_);}
	.st326{filter:url(#Adobe_OpacityMaskFilter_25_);}
	.st327{opacity:0.75;mask:url(#SVGID_180_);}
	.st328{filter:url(#Adobe_OpacityMaskFilter_26_);}
	.st329{opacity:0.75;mask:url(#SVGID_181_);}
	.st330{filter:url(#Adobe_OpacityMaskFilter_27_);}
	.st331{opacity:0.55;mask:url(#SVGID_182_);}
</style>
<g>
	<g>
		<circle class="st148" cx="16" cy="89.7" r="16"/>
		<path class="st32" d="M28.4,79.6c0.6,1.7,1,3.6,1,5.6c0,8.8-7.2,16-16,16c-5,0-9.4-2.3-12.4-5.9c2.3,6.1,8.1,10.5,15,10.5
			c8.8,0,16-7.2,16-16C32,85.9,30.7,82.3,28.4,79.6z"/>
		<path class="st150" d="M7.4,93h17.7c0,0-2.1,8.2-8.8,8.2S7.4,93,7.4,93z"/>
		<circle class="st150" cx="8.4" cy="85.5" r="2.2"/>
		<circle class="st150" cx="22.9" cy="85.5" r="2.2"/>
		<path class="st140" d="M10.6,98.7c0,0,1.3-1.6,5.7-1.6s5.7,1.6,5.7,1.6s-1.7,2.5-5.7,2.5S10.6,98.7,10.6,98.7z"/>
	</g>
	<g>
		<circle class="st148" cx="53.3" cy="89.7" r="16"/>
		<path class="st32" d="M65.7,79.6c0.6,1.7,1,3.6,1,5.6c0,8.8-7.2,16-16,16c-5,0-9.4-2.3-12.4-5.9c2.3,6.1,8.1,10.5,15,10.5
			c8.8,0,16-7.2,16-16C69.3,85.9,68,82.3,65.7,79.6z"/>
		<path class="st150" d="M44.7,93h17.7c0,0-2.1,8.2-8.8,8.2S44.7,93,44.7,93z"/>
		<circle class="st150" cx="45.7" cy="85.5" r="2.2"/>
		<circle class="st150" cx="60.2" cy="85.5" r="2.2"/>
		<path class="st140" d="M47.9,98.7c0,0,1.3-1.6,5.7-1.6s5.7,1.6,5.7,1.6s-1.7,2.5-5.7,2.5S47.9,98.7,47.9,98.7z"/>
	</g>
	<g>
		<circle class="st148" cx="90.6" cy="89.7" r="16"/>
		<path class="st32" d="M103,79.6c0.6,1.7,1,3.6,1,5.6c0,8.8-7.2,16-16,16c-5,0-9.4-2.3-12.4-5.9c2.3,6.1,8.1,10.5,15,10.5
			c8.8,0,16-7.2,16-16C106.6,85.9,105.2,82.3,103,79.6z"/>
		<path class="st150" d="M82,93h17.7c0,0-2.1,8.2-8.8,8.2S82,93,82,93z"/>
		<circle class="st150" cx="83" cy="85.5" r="2.2"/>
		<circle class="st150" cx="97.5" cy="85.5" r="2.2"/>
		<path class="st140" d="M85.2,98.7c0,0,1.3-1.6,5.7-1.6s5.7,1.6,5.7,1.6s-1.7,2.5-5.7,2.5C86.8,101.2,85.2,98.7,85.2,98.7z"/>
	</g>
	<g>
		<circle class="st148" cx="127.9" cy="89.7" r="16"/>
		<path class="st32" d="M140.3,79.6c0.6,1.7,1,3.6,1,5.6c0,8.8-7.2,16-16,16c-5,0-9.4-2.3-12.4-5.9c2.3,6.1,8.1,10.5,15,10.5
			c8.8,0,16-7.2,16-16C143.9,85.9,142.5,82.3,140.3,79.6z"/>
		<path class="st150" d="M119.3,93h17.7c0,0-2.1,8.2-8.8,8.2C121.4,101.2,119.3,93,119.3,93z"/>
		<circle class="st150" cx="120.3" cy="85.5" r="2.2"/>
		<circle class="st150" cx="134.8" cy="85.5" r="2.2"/>
		<path class="st140" d="M122.5,98.7c0,0,1.3-1.6,5.7-1.6c4.3,0,5.7,1.6,5.7,1.6s-1.7,2.5-5.7,2.5
			C124.1,101.2,122.5,98.7,122.5,98.7z"/>
	</g>
	<g>
		<circle class="st148" cx="16" cy="16" r="16"/>
		<path class="st32" d="M28.4,5.9c0.6,1.7,1,3.6,1,5.6c0,8.8-7.2,16-16,16c-5,0-9.4-2.3-12.4-5.9C3.3,27.7,9.1,32,16,32
			c8.8,0,16-7.2,16-16C32,12.2,30.7,8.6,28.4,5.9z"/>
		<path class="st150" d="M7.4,19.3h17.7c0,0-2.1,8.2-8.8,8.2S7.4,19.3,7.4,19.3z"/>
		<circle class="st150" cx="8.4" cy="11.8" r="2.2"/>
		<circle class="st150" cx="22.9" cy="11.8" r="2.2"/>
		<path class="st140" d="M10.6,25c0,0,1.3-1.6,5.7-1.6s5.7,1.6,5.7,1.6s-1.7,2.5-5.7,2.5S10.6,25,10.6,25z"/>
	</g>
	<g>
		<circle class="st148" cx="54.9" cy="16" r="16"/>
		<path class="st32" d="M67.2,5.9c0.6,1.7,1,3.6,1,5.6c0,8.8-7.2,16-16,16c-5,0-9.4-2.3-12.4-5.9C42.1,27.7,48,32,54.9,32
			c8.8,0,16-7.2,16-16C70.9,12.2,69.5,8.6,67.2,5.9z"/>
		<path class="st150" d="M46.3,19.3h17.7c0,0-2.1,8.2-8.8,8.2S46.3,19.3,46.3,19.3z"/>
		<circle class="st150" cx="47.3" cy="11.8" r="2.2"/>
		<circle class="st150" cx="61.8" cy="11.8" r="2.2"/>
		<path class="st140" d="M49.4,25c0,0,1.3-1.6,5.7-1.6s5.7,1.6,5.7,1.6s-1.7,2.5-5.7,2.5S49.4,25,49.4,25z"/>
	</g>
	<g>
		<circle class="st148" cx="93.7" cy="16" r="16"/>
		<path class="st32" d="M106.1,5.9c0.6,1.7,1,3.6,1,5.6c0,8.8-7.2,16-16,16c-5,0-9.4-2.3-12.4-5.9C81,27.7,86.8,32,93.7,32
			c8.8,0,16-7.2,16-16C109.7,12.2,108.3,8.6,106.1,5.9z"/>
		<path class="st150" d="M85.1,19.3h17.7c0,0-2.1,8.2-8.8,8.2S85.1,19.3,85.1,19.3z"/>
		<circle class="st150" cx="86.1" cy="11.8" r="2.2"/>
		<circle class="st150" cx="100.6" cy="11.8" r="2.2"/>
		<path class="st140" d="M88.3,25c0,0,1.3-1.6,5.7-1.6c4.3,0,5.7,1.6,5.7,1.6s-1.7,2.5-5.7,2.5C89.9,27.5,88.3,25,88.3,25z"/>
	</g>
	<g>
		<circle class="st148" cx="132.5" cy="16" r="16"/>
		<path class="st32" d="M144.9,5.9c0.6,1.7,1,3.6,1,5.6c0,8.8-7.2,16-16,16c-5,0-9.4-2.3-12.4-5.9c2.3,6.1,8.1,10.5,15,10.5
			c8.8,0,16-7.2,16-16C148.5,12.2,147.2,8.6,144.9,5.9z"/>
		<path class="st150" d="M123.9,19.3h17.7c0,0-2.1,8.2-8.8,8.2S123.9,19.3,123.9,19.3z"/>
		<circle class="st150" cx="124.9" cy="11.8" r="2.2"/>
		<circle class="st150" cx="139.4" cy="11.8" r="2.2"/>
		<path class="st140" d="M127.1,25c0,0,1.3-1.6,5.7-1.6s5.7,1.6,5.7,1.6s-1.7,2.5-5.7,2.5S127.1,25,127.1,25z"/>
	</g>
	<g>
		<circle class="st148" cx="171.4" cy="16" r="16"/>
		<path class="st32" d="M183.8,5.9c0.6,1.7,1,3.6,1,5.6c0,8.8-7.2,16-16,16c-5,0-9.4-2.3-12.4-5.9c2.3,6.1,8.1,10.5,15,10.5
			c8.8,0,16-7.2,16-16C187.4,12.2,186,8.6,183.8,5.9z"/>
		<path class="st150" d="M162.8,19.3h17.7c0,0-2.1,8.2-8.8,8.2S162.8,19.3,162.8,19.3z"/>
		<circle class="st150" cx="163.8" cy="11.8" r="2.2"/>
		<circle class="st150" cx="178.3" cy="11.8" r="2.2"/>
		<path class="st140" d="M166,25c0,0,1.3-1.6,5.7-1.6c4.3,0,5.7,1.6,5.7,1.6s-1.7,2.5-5.7,2.5C167.6,27.5,166,25,166,25z"/>
	</g>
	<g>
		<circle class="st148" cx="210.2" cy="16" r="16"/>
		<path class="st32" d="M222.6,5.9c0.6,1.7,1,3.6,1,5.6c0,8.8-7.2,16-16,16c-5,0-9.4-2.3-12.4-5.9c2.3,6.1,8.1,10.5,15,10.5
			c8.8,0,16-7.2,16-16C226.2,12.2,224.9,8.6,222.6,5.9z"/>
		<path class="st150" d="M201.6,19.3h17.7c0,0-2.1,8.2-8.8,8.2S201.6,19.3,201.6,19.3z"/>
		<circle class="st150" cx="202.6" cy="11.8" r="2.2"/>
		<circle class="st150" cx="217.1" cy="11.8" r="2.2"/>
		<path class="st140" d="M204.8,25c0,0,1.3-1.6,5.7-1.6s5.7,1.6,5.7,1.6s-1.7,2.5-5.7,2.5C206.4,27.5,204.8,25,204.8,25z"/>
	</g>
	<g>
		<circle class="st148" cx="16" cy="52.2" r="16"/>
		<path class="st32" d="M28.4,42.1c0.6,1.7,1,3.6,1,5.6c0,8.8-7.2,16-16,16c-5,0-9.4-2.3-12.4-5.9c2.3,6.1,8.1,10.5,15,10.5
			c8.8,0,16-7.2,16-16C32,48.4,30.7,44.8,28.4,42.1z"/>
		<path class="st150" d="M7.4,55.5h17.7c0,0-2.1,8.2-8.8,8.2S7.4,55.5,7.4,55.5z"/>
		<circle class="st150" cx="8.4" cy="48" r="2.2"/>
		<circle class="st150" cx="22.9" cy="48" r="2.2"/>
		<path class="st140" d="M10.6,61.2c0,0,1.3-1.6,5.7-1.6s5.7,1.6,5.7,1.6s-1.7,2.5-5.7,2.5S10.6,61.2,10.6,61.2z"/>
	</g>
	<g>
		<circle class="st148" cx="54.9" cy="52.2" r="16"/>
		<path class="st32" d="M67.2,42.1c0.6,1.7,1,3.6,1,5.6c0,8.8-7.2,16-16,16c-5,0-9.4-2.3-12.4-5.9c2.3,6.1,8.1,10.5,15,10.5
			c8.8,0,16-7.2,16-16C70.9,48.4,69.5,44.8,67.2,42.1z"/>
		<path class="st150" d="M46.3,55.5h17.7c0,0-2.1,8.2-8.8,8.2S46.3,55.5,46.3,55.5z"/>
		<circle class="st150" cx="47.3" cy="48" r="2.2"/>
		<circle class="st150" cx="61.8" cy="48" r="2.2"/>
		<path class="st140" d="M49.4,61.2c0,0,1.3-1.6,5.7-1.6s5.7,1.6,5.7,1.6s-1.7,2.5-5.7,2.5S49.4,61.2,49.4,61.2z"/>
	</g>
	<g>
		<circle class="st148" cx="93.7" cy="52.2" r="16"/>
		<path class="st32" d="M106.1,42.1c0.6,1.7,1,3.6,1,5.6c0,8.8-7.2,16-16,16c-5,0-9.4-2.3-12.4-5.9c2.3,6.1,8.1,10.5,15,10.5
			c8.8,0,16-7.2,16-16C109.7,48.4,108.3,44.8,106.1,42.1z"/>
		<path class="st150" d="M85.1,55.5h17.7c0,0-2.1,8.2-8.8,8.2S85.1,55.5,85.1,55.5z"/>
		<circle class="st150" cx="86.1" cy="48" r="2.2"/>
		<circle class="st150" cx="100.6" cy="48" r="2.2"/>
		<path class="st140" d="M88.3,61.2c0,0,1.3-1.6,5.7-1.6c4.3,0,5.7,1.6,5.7,1.6s-1.7,2.5-5.7,2.5C89.9,63.7,88.3,61.2,88.3,61.2z"/>
	</g>
	<g>
		<circle class="st148" cx="132.5" cy="52.2" r="16"/>
		<path class="st32" d="M144.9,42.1c0.6,1.7,1,3.6,1,5.6c0,8.8-7.2,16-16,16c-5,0-9.4-2.3-12.4-5.9c2.3,6.1,8.1,10.5,15,10.5
			c8.8,0,16-7.2,16-16C148.5,48.4,147.2,44.8,144.9,42.1z"/>
		<path class="st150" d="M123.9,55.5h17.7c0,0-2.1,8.2-8.8,8.2S123.9,55.5,123.9,55.5z"/>
		<circle class="st150" cx="124.9" cy="48" r="2.2"/>
		<circle class="st150" cx="139.4" cy="48" r="2.2"/>
		<path class="st140" d="M127.1,61.2c0,0,1.3-1.6,5.7-1.6s5.7,1.6,5.7,1.6s-1.7,2.5-5.7,2.5S127.1,61.2,127.1,61.2z"/>
	</g>
	<g>
		<circle class="st148" cx="171.4" cy="52.2" r="16"/>
		<path class="st32" d="M183.8,42.1c0.6,1.7,1,3.6,1,5.6c0,8.8-7.2,16-16,16c-5,0-9.4-2.3-12.4-5.9c2.3,6.1,8.1,10.5,15,10.5
			c8.8,0,16-7.2,16-16C187.4,48.4,186,44.8,183.8,42.1z"/>
		<path class="st150" d="M162.8,55.5h17.7c0,0-2.1,8.2-8.8,8.2S162.8,55.5,162.8,55.5z"/>
		<circle class="st150" cx="163.8" cy="48" r="2.2"/>
		<circle class="st150" cx="178.3" cy="48" r="2.2"/>
		<path class="st140" d="M166,61.2c0,0,1.3-1.6,5.7-1.6c4.3,0,5.7,1.6,5.7,1.6s-1.7,2.5-5.7,2.5C167.6,63.7,166,61.2,166,61.2z"/>
	</g>
	<g>
		<circle class="st148" cx="210.2" cy="52.2" r="16"/>
		<path class="st32" d="M222.6,42.1c0.6,1.7,1,3.6,1,5.6c0,8.8-7.2,16-16,16c-5,0-9.4-2.3-12.4-5.9c2.3,6.1,8.1,10.5,15,10.5
			c8.8,0,16-7.2,16-16C226.2,48.4,224.9,44.8,222.6,42.1z"/>
		<path class="st150" d="M201.6,55.5h17.7c0,0-2.1,8.2-8.8,8.2S201.6,55.5,201.6,55.5z"/>
		<circle class="st150" cx="202.6" cy="48" r="2.2"/>
		<circle class="st150" cx="217.1" cy="48" r="2.2"/>
		<path class="st140" d="M204.8,61.2c0,0,1.3-1.6,5.7-1.6s5.7,1.6,5.7,1.6s-1.7,2.5-5.7,2.5C206.4,63.7,204.8,61.2,204.8,61.2z"/>
	</g>
</g>
</svg>
