<?xml version="1.0" encoding="utf-8"?>
<!-- Generator: Adobe Illustrator 23.0.0, SVG Export Plug-In . SVG Version: 6.00 Build 0)  -->
<svg version="1.1" id="Layer_1" xmlns="http://www.w3.org/2000/svg" xmlns:xlink="http://www.w3.org/1999/xlink" x="0px" y="0px"
	 viewBox="0 0 153.7 182.9" style="enable-background:new 0 0 153.7 182.9;" xml:space="preserve">
<style type="text/css">
	.st0{opacity:0.6;fill:url(#SVGID_1_);}
	.st1{fill:#38B5E5;}
	.st2{filter:url(#Adobe_OpacityMaskFilter);}
	.st3{opacity:0.5;mask:url(#SVGID_2_);}
	.st4{fill:#F9F9F9;}
	.st5{fill:url(#SVGID_3_);}
	.st6{fill:#FCC070;}
	.st7{fill:#FFFFFF;}
	.st8{fill:#8C4709;}
	.st9{fill:#6D3713;}
	.st10{fill:#6D3713;stroke:#8C4709;stroke-width:4.4705;stroke-miterlimit:10;}
	.st11{opacity:0.1;fill:#8C4709;}
	.st12{fill:#E6E7E8;stroke:#414042;stroke-miterlimit:10;}
	.st13{fill:url(#SVGID_4_);}
	.st14{filter:url(#Adobe_OpacityMaskFilter_1_);}
	.st15{opacity:0.5;mask:url(#SVGID_5_);}
	.st16{fill:url(#SVGID_6_);}
	.st17{fill:url(#SVGID_7_);}
	.st18{filter:url(#Adobe_OpacityMaskFilter_2_);}
	.st19{opacity:0.5;mask:url(#SVGID_8_);}
	.st20{fill:url(#SVGID_9_);}
	.st21{fill:#D3CCC7;}
	.st22{fill:url(#SVGID_10_);}
	.st23{fill:none;stroke:#59371F;stroke-width:3.8076;stroke-linecap:square;stroke-miterlimit:10;}
	.st24{fill:#59371F;}
	.st25{fill:#F1F2F2;}
	.st26{fill:#BBCC9E;}
	.st27{fill:url(#SVGID_11_);}
	.st28{fill:none;stroke:#753103;stroke-width:3.8076;stroke-linecap:square;stroke-miterlimit:10;}
	.st29{fill:#753103;}
	.st30{fill:#FFFFFF;stroke:#753103;stroke-width:1.1471;stroke-linecap:square;stroke-miterlimit:10;}
	.st31{fill:url(#SVGID_12_);}
	.st32{opacity:0.5;fill:#CEC919;}
	.st33{fill:#99967A;}
	.st34{fill:url(#SVGID_13_);}
	.st35{fill:url(#SVGID_14_);}
	.st36{filter:url(#Adobe_OpacityMaskFilter_3_);}
	.st37{opacity:0.5;mask:url(#SVGID_15_);}
	.st38{fill:url(#SVGID_16_);}
	.st39{fill:url(#SVGID_17_);}
	.st40{fill:#19CE5A;}
	.st41{filter:url(#Adobe_OpacityMaskFilter_4_);}
	.st42{opacity:0.5;mask:url(#SVGID_18_);}
	.st43{fill:url(#SVGID_19_);}
	.st44{fill:url(#SVGID_20_);}
	.st45{fill:url(#SVGID_21_);}
	.st46{fill:#19BDCE;}
	.st47{filter:url(#Adobe_OpacityMaskFilter_5_);}
	.st48{opacity:0.5;mask:url(#SVGID_22_);}
	.st49{fill:url(#SVGID_23_);}
	.st50{fill:#13A543;}
	.st51{fill:url(#SVGID_24_);}
	.st52{fill:url(#SVGID_25_);}
	.st53{fill:url(#SVGID_26_);}
	.st54{fill:url(#SVGID_27_);}
	.st55{fill:url(#SVGID_28_);}
	.st56{fill:url(#SVGID_29_);}
	.st57{fill:url(#SVGID_30_);}
	.st58{fill:url(#SVGID_31_);}
	.st59{fill:url(#SVGID_32_);}
	.st60{fill:url(#SVGID_33_);}
	.st61{fill:url(#SVGID_34_);}
	.st62{fill:url(#SVGID_35_);}
	.st63{fill:url(#SVGID_36_);}
	.st64{fill:url(#SVGID_37_);}
	.st65{fill:url(#SVGID_38_);}
	.st66{fill:url(#SVGID_39_);}
	.st67{fill:url(#SVGID_40_);}
	.st68{fill:url(#SVGID_41_);}
	.st69{fill:url(#SVGID_42_);}
	.st70{fill:url(#SVGID_43_);}
	.st71{fill:url(#SVGID_44_);}
	.st72{fill:url(#SVGID_45_);}
	.st73{fill:#CEC919;}
	.st74{opacity:0.5;fill:#B7AF1A;}
	.st75{fill:url(#SVGID_46_);}
	.st76{fill:#0C7277;}
	.st77{fill:#10818C;}
	.st78{fill:url(#SVGID_47_);}
	.st79{fill:none;stroke:#FFFFFF;stroke-width:0.9712;stroke-miterlimit:10;}
	.st80{fill:url(#SVGID_48_);}
	.st81{fill:url(#SVGID_49_);}
	.st82{fill:url(#SVGID_50_);}
	.st83{fill:url(#SVGID_51_);}
	.st84{fill:url(#SVGID_52_);}
	.st85{filter:url(#Adobe_OpacityMaskFilter_6_);}
	.st86{opacity:0.5;mask:url(#SVGID_53_);}
	.st87{fill:url(#SVGID_54_);}
	.st88{fill:url(#SVGID_55_);}
	.st89{fill:url(#SVGID_56_);}
	.st90{filter:url(#Adobe_OpacityMaskFilter_7_);}
	.st91{opacity:0.5;mask:url(#SVGID_57_);}
	.st92{fill:url(#SVGID_58_);}
	.st93{fill:url(#SVGID_59_);}
	.st94{fill:url(#SVGID_60_);}
	.st95{fill:url(#SVGID_61_);}
	.st96{fill:url(#SVGID_62_);}
	.st97{fill:url(#SVGID_63_);}
	.st98{fill:url(#SVGID_64_);}
	.st99{fill:url(#SVGID_65_);}
	.st100{fill:url(#SVGID_66_);}
	.st101{fill:url(#SVGID_67_);}
	.st102{fill:url(#SVGID_68_);}
	.st103{fill:url(#SVGID_69_);}
	.st104{fill:url(#SVGID_70_);}
	.st105{fill:url(#SVGID_71_);}
	.st106{fill:url(#SVGID_72_);}
	.st107{fill:url(#SVGID_73_);}
	.st108{fill:url(#SVGID_74_);}
	.st109{fill:url(#SVGID_75_);}
	.st110{fill:url(#SVGID_76_);}
	.st111{fill:url(#SVGID_77_);}
	.st112{fill:url(#SVGID_78_);}
	.st113{fill:url(#SVGID_79_);}
	.st114{fill:url(#SVGID_80_);}
	.st115{fill:url(#SVGID_81_);}
	.st116{fill:url(#SVGID_82_);}
	.st117{fill:url(#SVGID_83_);}
	.st118{fill:url(#SVGID_84_);}
	.st119{fill:url(#SVGID_85_);}
	.st120{fill:url(#SVGID_86_);}
	.st121{fill:url(#SVGID_87_);}
	.st122{filter:url(#Adobe_OpacityMaskFilter_8_);}
	.st123{opacity:0.5;mask:url(#SVGID_88_);}
	.st124{fill:#F7941D;}
	.st125{fill:#C2B59B;}
	.st126{fill:#FBB040;}
	.st127{fill:#CC83AE;}
	.st128{fill:#9B7A1F;}
	.st129{fill:#050505;}
	.st130{filter:url(#Adobe_OpacityMaskFilter_9_);}
	.st131{opacity:0.5;mask:url(#SVGID_89_);}
	.st132{fill-rule:evenodd;clip-rule:evenodd;fill:#BEE4F0;}
	.st133{fill:#BEE4F0;}
	.st134{fill-rule:evenodd;clip-rule:evenodd;fill:url(#SVGID_90_);}
	.st135{fill-rule:evenodd;clip-rule:evenodd;fill:url(#SVGID_91_);}
	.st136{fill:url(#SVGID_92_);}
	.st137{fill:url(#SVGID_93_);}
	.st138{fill:url(#SVGID_94_);}
	.st139{fill:#A7A9AC;}
	.st140{fill:#CE1949;}
	.st141{fill:#BA1749;}
	.st142{fill:#1795D0;}
	.st143{fill:#117CAE;}
	.st144{filter:url(#Adobe_OpacityMaskFilter_10_);}
	.st145{opacity:0.75;mask:url(#SVGID_95_);}
	.st146{fill:url(#SVGID_96_);}
	.st147{fill:url(#SVGID_97_);}
	.st148{fill:#EAD93B;}
	.st149{fill:none;stroke:#914F13;stroke-width:1.5;stroke-linecap:round;stroke-miterlimit:10;}
	.st150{fill:#914F13;}
	.st151{fill:#231F20;}
	.st152{fill:none;stroke:#414042;stroke-width:5.4063;stroke-miterlimit:10;}
	.st153{filter:url(#Adobe_OpacityMaskFilter_11_);}
	.st154{opacity:0.55;mask:url(#SVGID_98_);}
	.st155{fill:none;stroke:#FFFFFF;stroke-width:5.4063;stroke-miterlimit:10;}
	.st156{fill:#414042;}
	.st157{fill:#F1F2F2;stroke:#000000;stroke-width:3.4864;stroke-miterlimit:10;}
	.st158{fill:#6D6E71;}
	.st159{opacity:0.5;fill:#19BDCE;}
	.st160{opacity:0.5;fill:#19CE5A;}
	.st161{fill:#D1D3D4;}
	.st162{opacity:0.95;fill:#8CE6AC;}
	.st163{opacity:0.8;fill:#FFFFFF;}
	.st164{fill:url(#SVGID_99_);}
	.st165{fill:url(#SVGID_100_);}
	.st166{fill:url(#SVGID_101_);}
	.st167{fill:url(#SVGID_102_);}
	.st168{fill:url(#SVGID_103_);}
	.st169{opacity:0.5;fill:#CE7419;}
	.st170{opacity:0.5;}
	.st171{fill:#CE7419;}
	.st172{fill:#68300B;}
	.st173{opacity:0.3;fill:#10818C;}
	.st174{fill:#148D93;}
	.st175{fill:url(#SVGID_104_);}
	.st176{fill:#11676B;}
	.st177{fill:url(#SVGID_105_);}
	.st178{fill:#D3C8AE;}
	.st179{fill:url(#SVGID_106_);}
	.st180{fill:#603913;}
	.st181{opacity:0.85;fill:url(#SVGID_107_);}
	.st182{opacity:0.85;fill:url(#SVGID_108_);}
	.st183{fill:#E6E7E8;}
	.st184{fill:url(#SVGID_109_);}
	.st185{fill:url(#SVGID_110_);}
	.st186{opacity:0.2;fill:none;stroke:#A7A9AC;stroke-width:0.3871;stroke-miterlimit:10;}
	.st187{fill:url(#SVGID_111_);}
	.st188{fill:url(#SVGID_112_);}
	.st189{opacity:0.85;fill:url(#SVGID_113_);}
	.st190{opacity:0.85;fill:url(#SVGID_114_);}
	.st191{opacity:0.1;fill:#CEC919;}
	.st192{fill:url(#SVGID_115_);}
	.st193{opacity:0.85;fill:url(#SVGID_116_);}
	.st194{opacity:0.85;fill:url(#SVGID_117_);}
	.st195{fill:url(#SVGID_118_);}
	.st196{fill:url(#SVGID_119_);}
	.st197{filter:url(#Adobe_OpacityMaskFilter_12_);}
	.st198{opacity:0.75;mask:url(#SVGID_120_);}
	.st199{fill:url(#SVGID_121_);}
	.st200{fill:#B51848;}
	.st201{opacity:0.8;}
	.st202{fill:url(#SVGID_122_);stroke:#BC6619;stroke-width:1.9011;stroke-linejoin:round;stroke-miterlimit:10;}
	.st203{fill:url(#SVGID_123_);}
	.st204{fill:url(#SVGID_124_);}
	
		.st205{fill:url(#SVGID_125_);stroke:#BC6619;stroke-width:1.9011;stroke-linecap:round;stroke-linejoin:round;stroke-miterlimit:10;}
	.st206{fill:none;}
	.st207{fill:#754C29;}
	.st208{filter:url(#Adobe_OpacityMaskFilter_13_);}
	.st209{opacity:0.75;mask:url(#SVGID_126_);}
	.st210{fill:#664024;}
	.st211{opacity:0.6;fill:#FFFFFF;}
	.st212{fill:none;stroke:#FFFFFF;stroke-width:0.8502;stroke-miterlimit:10;}
	.st213{fill:#4D7C37;}
	.st214{fill:#999697;}
	.st215{fill:#BCBCBC;}
	.st216{fill:#B2B1B1;}
	.st217{opacity:0.3;}
	.st218{opacity:0.8;fill:#19CE5A;}
	.st219{opacity:0.8;fill:#F9F1D7;}
	.st220{opacity:0.8;fill:#A7A9AC;}
	.st221{fill:#A97C50;}
	.st222{fill:#C49A6C;}
	.st223{opacity:0.6;fill:#C2B59B;}
	.st224{fill:url(#SVGID_127_);}
	.st225{fill:url(#SVGID_128_);}
	.st226{fill:url(#SVGID_129_);}
	.st227{fill:url(#SVGID_130_);}
	.st228{opacity:0.2;fill:#FFFFFF;}
	.st229{opacity:0.8;fill:#939598;}
	.st230{filter:url(#Adobe_OpacityMaskFilter_14_);}
	.st231{opacity:0.75;mask:url(#SVGID_131_);}
	.st232{opacity:0.2;fill:#043464;}
	.st233{opacity:0.5;fill:#FFFFFF;}
	.st234{fill:url(#SVGID_132_);}
	.st235{fill:url(#SVGID_133_);}
	.st236{fill:url(#SVGID_134_);}
	.st237{opacity:0.2;fill:none;stroke:#A7A9AC;stroke-miterlimit:10;}
	.st238{filter:url(#Adobe_OpacityMaskFilter_15_);}
	.st239{opacity:0.75;mask:url(#SVGID_135_);}
	.st240{fill:none;stroke:#939598;stroke-width:4;stroke-linecap:round;stroke-miterlimit:10;}
	.st241{filter:url(#Adobe_OpacityMaskFilter_16_);}
	.st242{opacity:0.75;mask:url(#SVGID_136_);}
	.st243{filter:url(#Adobe_OpacityMaskFilter_17_);}
	.st244{opacity:0.75;mask:url(#SVGID_137_);}
	.st245{fill:url(#SVGID_138_);}
	.st246{fill:url(#SVGID_139_);}
	.st247{fill:url(#SVGID_140_);}
	.st248{filter:url(#Adobe_OpacityMaskFilter_18_);}
	.st249{opacity:0.75;mask:url(#SVGID_141_);}
	.st250{filter:url(#Adobe_OpacityMaskFilter_19_);}
	.st251{opacity:0.75;mask:url(#SVGID_142_);}
	.st252{fill:url(#SVGID_143_);}
	.st253{fill:url(#SVGID_144_);}
	.st254{fill:url(#SVGID_145_);}
	.st255{fill:#043464;}
	.st256{filter:url(#Adobe_OpacityMaskFilter_20_);}
	.st257{opacity:0.75;mask:url(#SVGID_146_);}
	.st258{filter:url(#Adobe_OpacityMaskFilter_21_);}
	.st259{opacity:0.75;mask:url(#SVGID_147_);}
	.st260{filter:url(#Adobe_OpacityMaskFilter_22_);}
	.st261{opacity:0.75;mask:url(#SVGID_148_);}
	.st262{filter:url(#Adobe_OpacityMaskFilter_23_);}
	.st263{opacity:0.75;mask:url(#SVGID_149_);}
	.st264{filter:url(#Adobe_OpacityMaskFilter_24_);}
	.st265{opacity:0.75;mask:url(#SVGID_150_);}
	.st266{fill:none;stroke:#FFFFFF;stroke-miterlimit:10;}
	.st267{fill:none;stroke:#043464;stroke-width:0.5;stroke-miterlimit:10;}
	.st268{fill:none;stroke:#C1272D;stroke-miterlimit:10;}
	.st269{opacity:0.8;fill:url(#SVGID_151_);}
	.st270{opacity:0.8;fill:url(#SVGID_152_);}
	.st271{opacity:0.6;fill:url(#SVGID_153_);}
	.st272{opacity:0.6;fill:url(#SVGID_154_);}
	.st273{opacity:0.6;fill:url(#SVGID_155_);}
	.st274{opacity:0.6;fill:url(#SVGID_156_);}
	.st275{opacity:0.6;fill:url(#SVGID_157_);}
	.st276{opacity:0.9;fill:url(#SVGID_158_);}
	.st277{opacity:0.9;fill:url(#SVGID_159_);}
	.st278{fill:url(#SVGID_160_);}
	.st279{fill:url(#SVGID_161_);}
	.st280{fill:none;stroke:#CE1949;stroke-width:3.7418;stroke-miterlimit:10;}
	.st281{fill:url(#SVGID_162_);}
	.st282{opacity:0.85;}
	.st283{fill:#0A6FA2;}
	.st284{fill:url(#SVGID_163_);}
	.st285{fill:url(#SVGID_164_);}
	.st286{opacity:0.7;}
	.st287{fill:url(#SVGID_165_);}
	.st288{fill:#CECDC4;}
	.st289{fill:#DBDAD1;}
	.st290{fill:none;stroke:#4BC133;stroke-miterlimit:10;}
	.st291{opacity:0.6;fill:url(#SVGID_166_);}
	.st292{opacity:0.7;fill:url(#SVGID_167_);}
	.st293{fill:url(#SVGID_168_);}
	.st294{fill:url(#SVGID_169_);}
	.st295{fill:url(#SVGID_170_);}
	.st296{filter:url(#Adobe_OpacityMaskFilter_25_);}
	.st297{opacity:0.75;mask:url(#SVGID_171_);}
	.st298{fill:url(#SVGID_172_);}
	.st299{fill:url(#SVGID_173_);}
	.st300{fill:none;stroke:#0C75A9;stroke-miterlimit:10;}
	.st301{fill:none;stroke:#0C75A9;stroke-width:0.9631;stroke-miterlimit:10;}
	.st302{opacity:0.6;fill:url(#SVGID_174_);}
	.st303{opacity:0.6;fill:url(#SVGID_175_);}
	.st304{opacity:0.85;fill:#FFFFFF;}
	.st305{fill:#AF8C74;}
	.st306{fill:#C1A691;}
	.st307{fill:#0C75A9;}
	.st308{fill:none;stroke:#CEC919;stroke-width:1.2016;stroke-miterlimit:10;}
	.st309{fill:#301207;}
	.st310{fill:#D8C0AB;}
	.st311{fill:#9B3151;}
	.st312{fill:#D8BAA4;}
	.st313{fill:#826E5D;}
	.st314{fill:#AD9989;}
	.st315{fill:none;stroke:#043464;stroke-width:0.6775;stroke-miterlimit:10;}
	.st316{fill:#8C7462;}
	.st317{fill:#0A70A3;}
	.st318{fill:none;stroke:#CEC919;stroke-width:0.6641;stroke-miterlimit:10;}
	.st319{filter:url(#Adobe_OpacityMaskFilter_26_);}
	.st320{opacity:0.55;mask:url(#SVGID_176_);}
	.st321{filter:url(#Adobe_OpacityMaskFilter_27_);}
	.st322{opacity:0.75;mask:url(#SVGID_177_);}
	.st323{fill:url(#SVGID_178_);}
	.st324{fill:#A8A8A8;}
	.st325{fill:#68580B;}
	.st326{fill:url(#SVGID_179_);}
	.st327{fill:url(#SVGID_180_);}
	.st328{fill:url(#SVGID_181_);}
	.st329{opacity:0.1;fill:#939598;}
	.st330{opacity:0.7;fill:url(#SVGID_182_);}
	.st331{opacity:0.75;fill:#FFFFFF;}
</style>
<g>
	<path class="st180" d="M14.9,23.1c0,0,1.2,10.5-1.7,16.7c-1.1,2.4-2.3,3.9-3.3,4.8c-0.7,0.7-0.3,1.8,0.7,1.9
		c10.3,1.1,41.2,4,53.7,0.1c0.7-0.2,1-1.1,0.6-1.7C63,41.9,58.4,33.1,61,21.9L14.9,23.1z"/>
	<circle class="st310" cx="37.9" cy="23.1" r="23.1"/>
	<path class="st180" d="M12.8,25.1c0,0,26.1-6.3,32.1-24.1c0,0-14-3.3-23.1,4.9C12.8,13.9,12.8,25.1,12.8,25.1z"/>
	<path class="st180" d="M30,1.1c0,0,14.3,22.8,33.1,22.8c0,0-1.3-14.3-12-20.4C40.6-2.5,30,1.1,30,1.1z"/>
	<path class="st207" d="M31.7,10.3c0,0-4.4,7.5-12.4,9.3c0,0-3.7,0.3,0.2-1.8S27.7,13.5,32,6.6S31.7,10.3,31.7,10.3z"/>
	<path class="st207" d="M50.1,16.9c3.1,2,6.7,3.7,10.4,3.9c-2.2-2-4.9-3.3-7.5-4.7s-5.2-2.9-7.2-5c-2-2.2-3.3-5.2-2.8-8.1
		c-0.2,1.1-1.8,1.8-1.7,3.4c0.1,1.3,1.1,2.8,1.8,3.9C44.8,13,47.4,15.1,50.1,16.9z"/>
	<path class="st207" d="M54.5,13.1c1.2,0.9,2.4,1.8,3.7,2.6c-0.6-2.4-2.1-4.5-3.9-6.1c-1.5-1.4-4.1-3.6-6.1-3.8
		C48.7,9,52.2,11.4,54.5,13.1z"/>
	<path class="st310" d="M75.8,98.7c-3-9.7-9.5-30.4-11.5-36.5c-2.7-8-8.9-16-26.2-16c-17.4,0-23.5,8-26.2,16
		C9.7,68.3,3.3,89,0.3,98.7c-0.9,2.9,0.6,6,3.4,7.2c3.1,1.3,6.7-0.4,7.8-3.6l10-29.7l2.7,33.2L9.5,155.2H38h28.5l-14.7-49.3
		l2.7-33.2l10,29.7c1.1,3.2,4.7,4.9,7.8,3.6h0C75.2,104.8,76.7,101.7,75.8,98.7z"/>
	<path class="st140" d="M51,48.2l-13,7.6l-13-7.6c0,0-8.7-0.8-15.5,15.2L19,81.2l2.8-4.2l2.3,28.8H38h13.8l2.3-28.8l2.8,4.2
		l9.5-17.8C59.8,47.4,51,48.2,51,48.2z"/>
	<path class="st310" d="M30.8,182.9H27c-2.6,0-4.6-2.1-4.6-4.6V153c0-2.6,2.1-4.6,4.6-4.6h3.9c2.6,0,4.6,2.1,4.6,4.6v25.3
		C35.5,180.8,33.4,182.9,30.8,182.9z"/>
	<path class="st310" d="M50.2,182.9h-3.9c-2.6,0-4.6-2.1-4.6-4.6V153c0-2.6,2.1-4.6,4.6-4.6h3.9c2.6,0,4.6,2.1,4.6,4.6v25.3
		C54.8,180.8,52.7,182.9,50.2,182.9z"/>
	<path class="st311" d="M51.8,105.9H38H24.2c0,0-13,47-21.4,52.4H38h35.3C64.9,152.9,51.8,105.9,51.8,105.9z"/>
	<circle class="st312" cx="118" cy="33.3" r="21.6"/>
	<path class="st312" d="M153.4,104.1c-2.8-9.1-8.9-28.5-10.8-34.2c-2.5-7.5-8.3-15-24.6-15s-22,7.5-24.6,15
		c-1.9,5.7-7.9,25-10.8,34.2c-0.8,2.7,0.5,5.7,3.2,6.7c2.9,1.2,6.3-0.3,7.3-3.3l9.4-27.8l2.3,28.6l-1.5,47.8l14.7-24v-2.8l15.7,26.8
		l-3-47.8l2.7-28.6l9.4,27.8c1,3,4.4,4.5,7.3,3.3C152.9,109.8,154.3,106.8,153.4,104.1z"/>
	<path class="st312" d="M111.1,182.9h-3c-2.6,0-4.6-2.1-4.6-4.6v-23.1c0-2.6,2.1-4.6,4.6-4.6h3c2.6,0,4.6,2.1,4.6,4.6v23.1
		C115.7,180.8,113.6,182.9,111.1,182.9z"/>
	<path class="st312" d="M129.2,182.9h-3c-2.6,0-4.6-2.1-4.6-4.6v-23.1c0-2.6,2.1-4.6,4.6-4.6h3c2.6,0,4.6,2.1,4.6,4.6v23.1
		C133.8,180.8,131.7,182.9,129.2,182.9z"/>
	<path class="st180" d="M93.7,22.3c1,0.6,2.6,1.1,3,0c0.1-0.3,0.1-0.6,0.1-0.9c-0.1-2-0.2-4.1-0.3-6.1c1.4,1.5,4.1,1.1,5.6-0.3
		c1.5-1.4,2.2-3.5,2.8-5.5c1,2.3,4.2,2.8,6.5,1.7c2.2-1.1,3.7-3.3,5.1-5.4c-0.5,2.1,1.5,4.3,3.6,4.5c2.2,0.2,4.3-1.4,5.1-3.4
		c-0.2,2.7,1.5,5.4,4.1,6.2c2.5,0.8,5.6-0.3,6.9-2.6c-0.4,1.8-0.8,3.8-0.3,5.6s2.2,3.5,4,3.2c-0.9,0.7-1.2,2.1-0.7,3.1
		c0.5,1,1.7,1.7,2.8,1.4c-0.1,2.7-0.1,5.4-0.2,8.1c-0.1,2.9-0.2,6.1-2,8.4c-0.4-4.4-0.9-9-3.2-12.9c-1.9-3.1-5-5.5-8.6-6.5
		c-2.5-0.7-5.1-0.8-7.6-1.2c-2.2-0.4-3.2-1.3-5.4-0.6c-1.8,0.6-3.6,1.9-5.3,2.8c-0.4,0.2-0.8,0.4-1.3,0.4c-0.3,0-0.7-0.1-1,0
		c-0.2,0.1-0.4,0.3-0.5,0.4c-0.9,1.1-1.8,2.3-2.6,3.6c-0.7,1.1-1.4,2.3-2.6,2.7c-0.1-0.3-0.4-0.5-0.7-0.6c-1.5,3.5-4.4,8.1-4.2,12
		c0-1-0.9-2.3-1.2-3.3c-0.4-1.6-0.5-3.4-0.8-5C94.5,28.8,94.1,25.5,93.7,22.3z"/>
	<path class="st77" d="M117.9,58.2c0,0,4.4,0.3,8.7-2.5c0,0,11.9,0,16.7,11.9c0,0-7.7,13.3-8.5,15.8c-0.8,2.5-1.7,0-1.7,0
		s-0.7,23,0.6,24.4c0,0-6.7,1.6-15.7,1.8L117.9,58.2z"/>
	<path class="st77" d="M118.4,58.2c0,0-4.4,0.3-8.7-2.5c0,0-11.9,0-16.7,11.9c0,0,7.7,13.3,8.5,15.8c0.8,2.5,1.7,0,1.7,0
		s0.7,23-0.6,24.4c0,0,6.7,1.6,15.7,1.8L118.4,58.2z"/>
	<path class="st255" d="M132,107.2l-13.7,0.9l-13.7-0.9l-1.9,67.4c0,0,13.4,3.8,14.3,1.5l1.3-42.6l1.3,42.6
		c0.9,2.3,14.3-1.5,14.3-1.5L132,107.2z"/>
	<polygon class="st73" points="111,90.2 114.4,76.5 117.1,80.7 121.5,69.2 123.7,73.2 129.1,63.9 124.3,78.2 121.5,77.1 117.1,87.6 
		115.7,83.9 	"/>
</g>
</svg>
