<?xml version="1.0" encoding="utf-8"?>
<!-- Generator: Adobe Illustrator 21.1.0, SVG Export Plug-In . SVG Version: 6.00 Build 0)  -->
<svg version="1.1" id="Layer_1" xmlns="http://www.w3.org/2000/svg" xmlns:xlink="http://www.w3.org/1999/xlink" x="0px" y="0px"
	 viewBox="0 0 280.8 247.5" style="enable-background:new 0 0 280.8 247.5;" xml:space="preserve">
<style type="text/css">
	.st0{fill:#38B5E5;}
	.st1{filter:url(#Adobe_OpacityMaskFilter);}
	.st2{opacity:0.5;mask:url(#SVGID_1_);}
	.st3{fill:#F9F9F9;}
	.st4{fill:url(#SVGID_2_);}
	.st5{fill:#FCC070;}
	.st6{fill:#FFFFFF;}
	.st7{fill:#8C4709;}
	.st8{fill:#6D3713;}
	.st9{fill:#6D3713;stroke:#8C4709;stroke-width:4.4705;stroke-miterlimit:10;}
	.st10{opacity:0.1;fill:#8C4709;}
	.st11{fill:#E6E7E8;stroke:#414042;stroke-miterlimit:10;}
	.st12{fill:url(#SVGID_3_);}
	.st13{filter:url(#Adobe_OpacityMaskFilter_1_);}
	.st14{opacity:0.5;mask:url(#SVGID_4_);}
	.st15{fill:url(#SVGID_5_);}
	.st16{fill:#D3CCC7;}
	.st17{fill:url(#SVGID_6_);}
	.st18{fill:none;stroke:#59371F;stroke-width:3.8076;stroke-linecap:square;stroke-miterlimit:10;}
	.st19{fill:#59371F;}
	.st20{fill:#F1F2F2;}
	.st21{fill:#BBCC9E;}
	.st22{fill:url(#SVGID_7_);}
	.st23{fill:none;stroke:#753103;stroke-width:3.8076;stroke-linecap:square;stroke-miterlimit:10;}
	.st24{fill:#753103;}
	.st25{fill:#FFFFFF;stroke:#753103;stroke-width:1.1471;stroke-linecap:square;stroke-miterlimit:10;}
	.st26{fill:url(#SVGID_8_);}
	.st27{opacity:0.5;fill:#CEC919;}
	.st28{fill:#99967A;}
	.st29{fill:#19CE5A;}
	.st30{filter:url(#Adobe_OpacityMaskFilter_2_);}
	.st31{opacity:0.5;mask:url(#SVGID_9_);}
	.st32{fill:url(#SVGID_10_);}
	.st33{fill:url(#SVGID_11_);}
	.st34{fill:url(#SVGID_12_);}
	.st35{fill:#19BDCE;}
	.st36{filter:url(#Adobe_OpacityMaskFilter_3_);}
	.st37{opacity:0.5;mask:url(#SVGID_13_);}
	.st38{fill:url(#SVGID_14_);}
	.st39{fill:#13A543;}
	.st40{fill:url(#SVGID_15_);}
	.st41{fill:url(#SVGID_16_);}
	.st42{fill:url(#SVGID_17_);}
	.st43{fill:url(#SVGID_18_);}
	.st44{fill:url(#SVGID_19_);}
	.st45{fill:url(#SVGID_20_);}
	.st46{fill:url(#SVGID_21_);}
	.st47{fill:url(#SVGID_22_);}
	.st48{fill:url(#SVGID_23_);}
	.st49{fill:url(#SVGID_24_);}
	.st50{fill:url(#SVGID_25_);}
	.st51{fill:url(#SVGID_26_);}
	.st52{fill:url(#SVGID_27_);}
	.st53{fill:url(#SVGID_28_);}
	.st54{fill:url(#SVGID_29_);}
	.st55{fill:url(#SVGID_30_);}
	.st56{fill:url(#SVGID_31_);}
	.st57{fill:url(#SVGID_32_);}
	.st58{fill:url(#SVGID_33_);}
	.st59{fill:url(#SVGID_34_);}
	.st60{fill:url(#SVGID_35_);}
	.st61{fill:url(#SVGID_36_);}
	.st62{fill:#CEC919;}
	.st63{opacity:0.5;fill:#B7AF1A;}
	.st64{fill:url(#SVGID_37_);}
	.st65{fill:#0C7277;}
	.st66{fill:#10818C;}
	.st67{fill:url(#SVGID_38_);}
	.st68{fill:none;stroke:#FFFFFF;stroke-width:0.9712;stroke-miterlimit:10;}
	.st69{fill:url(#SVGID_39_);}
	.st70{fill:url(#SVGID_40_);}
	.st71{fill:url(#SVGID_41_);}
	.st72{fill:url(#SVGID_42_);}
	.st73{fill:url(#SVGID_43_);}
	.st74{filter:url(#Adobe_OpacityMaskFilter_4_);}
	.st75{opacity:0.5;mask:url(#SVGID_44_);}
	.st76{fill:#F7941D;}
	.st77{fill:#C2B59B;}
	.st78{fill:#FBB040;}
	.st79{fill:#CC83AE;}
	.st80{fill:#9B7A1F;}
	.st81{fill:#050505;}
	.st82{fill-rule:evenodd;clip-rule:evenodd;fill:#BEE4F0;}
	.st83{fill:#BEE4F0;}
	.st84{fill-rule:evenodd;clip-rule:evenodd;fill:url(#SVGID_45_);}
	.st85{fill-rule:evenodd;clip-rule:evenodd;fill:url(#SVGID_46_);}
	.st86{fill:url(#SVGID_47_);}
	.st87{fill:url(#SVGID_48_);}
	.st88{fill:url(#SVGID_49_);}
	.st89{fill:#A7A9AC;}
	.st90{fill:#CE1949;}
	.st91{fill:#BA1749;}
	.st92{fill:#1795D0;}
	.st93{fill:#117CAE;}
	.st94{filter:url(#Adobe_OpacityMaskFilter_5_);}
	.st95{opacity:0.75;mask:url(#SVGID_50_);}
	.st96{fill:url(#SVGID_51_);}
	.st97{fill:url(#SVGID_52_);}
	.st98{fill:#EAD93B;}
	.st99{fill:none;stroke:#914F13;stroke-width:1.5;stroke-linecap:round;stroke-miterlimit:10;}
	.st100{fill:#914F13;}
	.st101{fill:#231F20;}
	.st102{fill:none;stroke:#414042;stroke-width:5.4063;stroke-miterlimit:10;}
	.st103{filter:url(#Adobe_OpacityMaskFilter_6_);}
	.st104{opacity:0.55;mask:url(#SVGID_53_);}
	.st105{fill:none;stroke:#FFFFFF;stroke-width:5.4063;stroke-miterlimit:10;}
	.st106{fill:#414042;}
	.st107{fill:#F1F2F2;stroke:#000000;stroke-width:3.4864;stroke-miterlimit:10;}
	.st108{fill:#6D6E71;}
	.st109{opacity:0.5;fill:#19BDCE;}
	.st110{opacity:0.5;fill:#19CE5A;}
	.st111{fill:#D1D3D4;}
	.st112{opacity:0.95;fill:#8CE6AC;}
	.st113{fill:#043464;}
	.st114{opacity:0.8;fill:#FFFFFF;}
	.st115{fill:url(#SVGID_54_);}
	.st116{fill:url(#SVGID_55_);}
	.st117{fill:url(#SVGID_56_);}
	.st118{fill:url(#SVGID_57_);}
	.st119{fill:url(#SVGID_58_);}
	.st120{opacity:0.5;fill:#CE7419;}
	.st121{opacity:0.5;}
	.st122{fill:#CE7419;}
	.st123{fill:#68300B;}
	.st124{opacity:0.3;fill:#10818C;}
	.st125{fill:#148D93;}
	.st126{fill:url(#SVGID_59_);}
	.st127{fill:#11676B;}
	.st128{fill:url(#SVGID_60_);}
	.st129{fill:#D3C8AE;}
	.st130{fill:url(#SVGID_61_);}
	.st131{fill:#603913;}
	.st132{opacity:0.85;fill:url(#SVGID_62_);}
	.st133{opacity:0.85;fill:url(#SVGID_63_);}
	.st134{fill:#E6E7E8;}
	.st135{fill:url(#SVGID_64_);}
	.st136{fill:url(#SVGID_65_);}
	.st137{opacity:0.2;fill:none;stroke:#A7A9AC;stroke-width:0.3871;stroke-miterlimit:10;}
	.st138{fill:url(#SVGID_66_);}
	.st139{fill:url(#SVGID_67_);}
	.st140{opacity:0.85;fill:url(#SVGID_68_);}
	.st141{opacity:0.85;fill:url(#SVGID_69_);}
	.st142{opacity:0.1;fill:#CEC919;}
	.st143{fill:url(#SVGID_70_);}
	.st144{opacity:0.85;fill:url(#SVGID_71_);}
	.st145{opacity:0.85;fill:url(#SVGID_72_);}
	.st146{fill:url(#SVGID_73_);}
	.st147{fill:url(#SVGID_74_);}
	.st148{filter:url(#Adobe_OpacityMaskFilter_7_);}
	.st149{opacity:0.75;mask:url(#SVGID_75_);}
	.st150{fill:url(#SVGID_76_);}
	.st151{fill:#B51848;}
	.st152{opacity:0.8;}
	.st153{fill:url(#SVGID_77_);stroke:#BC6619;stroke-width:1.9011;stroke-linejoin:round;stroke-miterlimit:10;}
	.st154{fill:url(#SVGID_78_);}
	.st155{fill:url(#SVGID_79_);}
	
		.st156{fill:url(#SVGID_80_);stroke:#BC6619;stroke-width:1.9011;stroke-linecap:round;stroke-linejoin:round;stroke-miterlimit:10;}
	.st157{fill:none;}
	.st158{fill:#754C29;}
	.st159{filter:url(#Adobe_OpacityMaskFilter_8_);}
	.st160{opacity:0.75;mask:url(#SVGID_81_);}
	.st161{fill:#664024;}
	.st162{opacity:0.6;fill:#FFFFFF;}
	.st163{fill:none;stroke:#FFFFFF;stroke-width:0.8502;stroke-miterlimit:10;}
	.st164{fill:#4D7C37;}
	.st165{fill:#999697;}
	.st166{fill:#BCBCBC;}
	.st167{fill:#B2B1B1;}
	.st168{opacity:0.3;}
	.st169{opacity:0.8;fill:#19CE5A;}
	.st170{opacity:0.8;fill:#F9F1D7;}
	.st171{opacity:0.8;fill:#A7A9AC;}
	.st172{fill:#A97C50;}
	.st173{fill:#C49A6C;}
	.st174{opacity:0.6;fill:#C2B59B;}
	.st175{fill:url(#SVGID_82_);}
	.st176{fill:url(#SVGID_83_);}
	.st177{fill:url(#SVGID_84_);}
	.st178{fill:url(#SVGID_85_);}
	.st179{opacity:0.2;fill:#FFFFFF;}
	.st180{opacity:0.8;fill:#939598;}
	.st181{filter:url(#Adobe_OpacityMaskFilter_9_);}
	.st182{opacity:0.75;mask:url(#SVGID_86_);}
	.st183{opacity:0.2;fill:#043464;}
	.st184{opacity:0.5;fill:#FFFFFF;}
	.st185{fill:url(#SVGID_87_);}
	.st186{fill:url(#SVGID_88_);}
	.st187{fill:url(#SVGID_89_);}
	.st188{opacity:0.2;fill:none;stroke:#A7A9AC;stroke-miterlimit:10;}
	.st189{filter:url(#Adobe_OpacityMaskFilter_10_);}
	.st190{opacity:0.75;mask:url(#SVGID_90_);}
	.st191{fill:none;stroke:#939598;stroke-width:4;stroke-linecap:round;stroke-miterlimit:10;}
	.st192{fill:#58595B;}
	.st193{filter:url(#Adobe_OpacityMaskFilter_11_);}
	.st194{opacity:0.75;mask:url(#SVGID_91_);}
	.st195{fill:url(#SVGID_92_);}
	.st196{fill:url(#SVGID_93_);}
	.st197{fill:url(#SVGID_94_);}
	.st198{filter:url(#Adobe_OpacityMaskFilter_12_);}
	.st199{opacity:0.75;mask:url(#SVGID_95_);}
	.st200{fill:#0A6FA2;}
	.st201{filter:url(#Adobe_OpacityMaskFilter_13_);}
	.st202{opacity:0.75;mask:url(#SVGID_96_);}
	.st203{fill:#0A70A3;}
	.st204{filter:url(#Adobe_OpacityMaskFilter_14_);}
	.st205{opacity:0.75;mask:url(#SVGID_97_);}
	.st206{filter:url(#Adobe_OpacityMaskFilter_15_);}
	.st207{opacity:0.75;mask:url(#SVGID_98_);}
	.st208{filter:url(#Adobe_OpacityMaskFilter_16_);}
	.st209{opacity:0.75;mask:url(#SVGID_99_);}
	.st210{filter:url(#Adobe_OpacityMaskFilter_17_);}
	.st211{opacity:0.75;mask:url(#SVGID_100_);}
	.st212{fill:none;stroke:#FFFFFF;stroke-miterlimit:10;}
	.st213{fill:none;stroke:#043464;stroke-width:0.5;stroke-miterlimit:10;}
	.st214{fill:none;stroke:#C1272D;stroke-miterlimit:10;}
	.st215{fill:#821921;}
</style>
<g>
	<linearGradient id="SVGID_1_" gradientUnits="userSpaceOnUse" x1="81.3871" y1="44.3231" x2="81.3871" y2="44.4428">
		<stop  offset="0" style="stop-color:#0C75A9;stop-opacity:0.5"/>
		<stop  offset="1" style="stop-color:#0C75A9"/>
	</linearGradient>
	<path style="fill-rule:evenodd;clip-rule:evenodd;fill:url(#SVGID_1_);" d="M81.4,44.3c0,0.1,0,0.1,0,0.1
		C81.4,44.4,81.4,44.4,81.4,44.3z"/>
	<linearGradient id="SVGID_2_" gradientUnits="userSpaceOnUse" x1="140.3772" y1="0" x2="140.3772" y2="247.4831">
		<stop  offset="0" style="stop-color:#0C75A9;stop-opacity:0.5"/>
		<stop  offset="1" style="stop-color:#0C75A9"/>
	</linearGradient>
	<path style="fill-rule:evenodd;clip-rule:evenodd;fill:url(#SVGID_2_);" d="M279.6,99.1c0.8-0.6,1.2-2.6,1.1-6.7
		c-0.5-8.1-1-29.8-4.8-38.9c-1.9-5.4-5.5-7.4-9.2-9c-3.2-1.3-6.3-2.6-9.2-4.2l-2.9-3.9c-0.8-2.7-0.3-5.4-2.3-8.1
		c-0.6-3.7-3.4-12.1-7.6-13l-2.3-0.5c-2.8-0.5-6.6,1.7-10,5.3c-2.6,2.8-4.5,7.7-6.4,11.1c-0.7,1.4-0.2,3.1,0.7,4.3
		c2.3,3.5,5.9,6.9,10.3,10.1c0.9,0.6,1.8,1.4,2.5,2.3l-2.2,1.4c-3.9,2.3-6.8,4.2-8.1,6c-2.5,3.4-2.9,19.9-3.3,24.2
		c-0.4,4.2-1.1,8.1-2.1,11.7c-1,3.2-1.3,7.2-1,11.7l0.1,1.8c-0.8,0.5-0.7,1.5-0.1,2c0.3,0.3,0.5,0.9,0.3,1.4c-0.6,1.1-1.4-5.8-1.3-3
		c-1,0.8-1.1,1.6-0.5,2.2c-0.6,1.5-0.7,2.9-0.4,4.1c1.5,1.8,1.9,4,1.4,6.5c-0.3,1.4,0.6,1.9,2,2l2.3,5.9c0.7,3.6,2.2,7.1,4.3,10.4
		c1.9,7.5,3.2,14.6,4.2,21.4c0.5,2.6,1.2,5.1,2.2,7.6c0.8,2.9,1.3,5.9,1.4,9c0.2,2.9,0.7,5.8,1.2,8.7c0.2,1.2,0.9,3.7,1.5,6.4
		c-2-1.5-1.5-0.8-2.9-2.1c-1.6-1.4-2-0.8-3.2-1.7c-1.1-1,0.8,0.5-1.1-1c-1.9-1.4-1-0.9-1.9-1.4c-0.9-0.5,2-0.8-1.7-0.8
		c-3.8,0-2,0.3-4.3-1.1c-2.2-1.4-2.5-0.6-3.8-1.7c-1.3-1.1-1.1-1.6-3.5-1.6c-2.4,0-1.1,0.2-3.3,0.8c-1.2,0.3-1.5,0.3-1.7,0.3
		l-0.2-45.7c0.1-0.1,0.3-0.2,0.4-0.4c1.1-1.1,2.1-3,2.8-4.2c0.7-1.2,1.9-3.1,1.4-3.8c-0.5-0.7-1.4-7.3-1.7-9
		c-0.2-1.3,0.6-13.8-4.6-26.6c-0.4-1.3-0.7-2.7-0.8-4.4c-0.7-6.6-0.4-20.5-0.5-22.6c-0.1-2.1,0.6-3,1.5-3.6c1-0.6,1.2-1.6,1.2-1.6
		c-1.2-2.3-3.8-5.9-5.2-7.9c-1.4-2-5.4-3.4-7.1-4.2c-1.6-0.8-3-0.4-3.8-0.9c0,0,0-0.1,0-0.2c0-0.8-0.3-2-0.6-2.8
		c-0.1-0.3-0.2-0.7-0.2-1.2c0.1-0.4,0.8-0.8,1.5-1c0.8-0.2,0.6-0.6,0.5-1.1c-0.1-0.5,0.1-0.3,1.5-0.7c1.4-0.4,2.2-0.5,2-0.8
		c-0.2-0.3,0.6-0.9,1.5-0.9c0.9,0,1.5,0.7,1.5,0.7s0.7-0.6,1.1-1.1c0.5-0.5,0.7-0.6,0.3-1.7c-0.4-1.1-0.9-2-0.9-2.9
		c0-1,0.9-2.2,0.9-2.2c-0.6-2.7-3.5-4.8-4.5-5.5c-1-0.7-1.2-2.1-2.2-6.6c-1-4.5-6.6-7.8-8-8.5c-1.3-0.7-1.7,0.2-1.7,0.2
		c-1.7-1.2-5.4,1.7-7.3,3.4c-1.8,1.7-5.5,8-5.8,10.1c-0.3,2.1-1.2,5.3-1.8,6.5c-0.6,1.2-1.3,1.6-0.3,1.7c1,0.1,0.7,1.4,0.4,2.3
		c-0.3,0.9,0.2,1.6,0.8,1.5c0.6-0.1,0.7-0.1,0.8,1.1c0,1,2.4,3.2,2.8,3.5c-0.9,1.2-1.7,2.5-1.9,3.6c0,0.3-0.1,0.5-0.1,0.8
		c-0.8,0.1-4.7,0.5-6.9,1.4c-2.2,0.9-5.5,1.5-7.8,3.5c-0.4-0.4-0.9-0.9-1.7-1.3l-1-1.9c0,0,2.4-1.5,1.8-3c-0.6-1.5-1.7-1.7-1.7-1.7
		s-1.3-3.2-0.8-4c0.4-0.8-1.9-3.7-2.5-5.1c-0.6-1.4-5.7-6.6-13-2.7c0,0-1.9,1.1-2.3,2.2l-1.4,1.8c0,0,0.3,1.4-0.2,1.5
		c-0.5,0.1-3.4-1-5.7-1.2c-2.3-0.2-5-1.4-5-1.4s0.6-1.9-1.7-3.6c0,0,0-0.3,0-0.8c0-0.5,0.9-3.7,0.5-7.1c0,0-0.1-2.1,0.2-2.6
		c0.3-0.5,0-2.7,0-2.7s1.2-1.4,0-4.4c0,0,0.4-2.6-1.6-4.9c-2-2.2-4.3-4.5-6.3-3.5c0,0-3.2-2.6-8.1,1.4c0,0-5.1,3.3-4.6,7.3
		c0,0,0,1.6,0.1,2.5c0.1,1,0.3,1.6,0.3,2.2c0,0.6,0.1,1.7,0.1,1.7s-3.1,1.1,2.3,6.9l1.3,5.2c0,0-1.2,0.7-1.7,5.2
		c0,0-1.2,0.8-1.7,0.7c0,0-1.3,0.6-1.6,1.4c-0.3,0.7-2.7,2.4-4.3,3.3c-1.6,0.8-7.7,4.9-8,5.6c0,0-3.6,6.4-4,8.5
		c-0.4,2.1-1.7,4.6-1.3,7.3c0,0-0.5,7.1-0.7,12.6c-1.1-0.4-2.3-0.7-3.7-1.2c0,0-3.7-1-4-1.1c-0.3-0.2-1.7-2.3-2.1-2.3
		c-0.4,0-0.4-1.5-0.6-1.5c-0.2,0-0.3-1.2-1.3-2.3c0,0,0.1-1.9,0.1-2.3c0-0.3,0.6-1.4,1.1-4.3c0,0,0.6,0.3,0.8,0.1
		c0.1-0.2,1.1,0.1,1.3-0.4c0.2-0.5,0.1-3.3-0.1-3.8c-0.2-0.4-0.2-1,0.1-1.2c0.3-0.1,1.1-1.4,1.3-2.4c0.2-1,0.5-2,0.1-2.2
		c-0.4-0.2-0.6-1.2-0.5-1.6c0.1-0.3-0.8-1.4-0.8-1.4s0.6,0.2,0.8,0.9c0,0,0,0.6,0.1-0.2c0-0.7-0.1-1.1-0.3-1.4c0,0,0,0,0-0.1
		c-0.3-0.3-0.4-0.4-0.4-0.4l0.2-0.1c0,0,0.4,0.4,0.5,0.7c-0.1-0.2-0.2-0.5-0.3-0.7c0,0,0.2,0.1,0.3-0.1c0-0.2,0-1.2-0.7-1.6
		c-0.7-0.4-1.3-1.8-1.5-1.8c-0.2,0-3.1-2.5-3.2-2.7c-0.1-0.3-3-1.6-3.3-1.5C72.2,36,71,35.4,71,35.4s-2.3-0.2-2.7,0.3
		c-0.4,0.5-1.6,0-2,0.3c-0.3,0.2-1.7-0.8-2.6,0.5c0,0-0.3,0.4-0.6,0.3c-0.3-0.1-0.3-0.1-0.3-0.1s-0.8,0.7-1,1
		c-0.2,0.4-1.4,0.7-1.8,1.7c-0.4,1-1.1,1.1-1.1,1.1s-1.8,1.6-1.6,2.1c0.3,0.5-0.6,2.2-0.9,2.3c-0.3,0-1.1,1-0.8,1.6
		c0,0.1,0,0.1,0,0.2c0,0.1,0,0.8,0.3,1.1c0.3,0.3,0.2,1.3,0.3,2.1c0,0,0.1,2.8,0.3,3.5c0.1,0.6,1.1,1.7,1.4,2.1
		c0.3,0.3,0.1,2.7,1.4,3.1l1,0.1c0,0,0.2,0.7,0.3,0.9c0.1,0.2,0.2,1.1,0.2,1.1s0.2,0.9,0.8,0.7c0,0,0.8,0.5,1-0.4
		c0.2-0.9,0.7,0,0.7,0s1,1.7,1.1,2.1c0,0-0.3,0.1-0.4,0.3c-0.1,0.2-1,3-1,3s-1,0.4-0.9,1.4c0,0-0.4,0.9-0.9,1.1
		c-0.4,0.1-0.8,0.6-0.8,0.6L59,70.4c0,0-4.7,1.2-8.5,3.6c0,0-2,1.6-2,2.3c0,0.7-1.6,6-1.9,8.7c-0.3,2.7,0,11.3-0.1,13.7
		c0,0.8-0.1,3.2-0.2,6.1c-0.4-0.2-0.8-0.4-1.3-0.6c1-7-0.4-7.7-2.2-8c-0.6-2.2,0.6-4.7-0.2-6.7c-1.3-3.2-3-4.4-4-7.8
		c-0.2-3.3-0.9-6.9-2.2-8.8c-4.3-6-12.6-6.3-16.5-1c-1,1.1-2.3,2.7-3.5,4.5c-1.1,1.7-2,5-3.7,6.2c-7.7,5.6-9.4,12.4-1.5,14.1
		c-2.5-0.9-4.6-6.2,0.6-9.3c0.6-0.3,1.5-1.2,1.9-2.9c-0.2,0.9-0.5,1.7-1,2.3c-1,1.1-2.3,2.1-2.8,3.1c-2.6,4.5,3.7,6.9,3.6,8.5
		c-1.2,0.3-2.4,0.9-1,4.1c-1.9,0-3-0.7-3,1.5c-1.4,0.3-2.7,1-4,1.9c-1,1.2-0.4,3.2-0.6,5.8c-0.3,3.2-2,5.6-0.6,7.1
		c-1.3,2.3,0.1,2.7-0.6,3.5c-2.3,0.9-0.6,2.7-1.6,3.6c-0.7,0.4-1.1,1.3-1.2,2.6c-2.1,4.3-0.5,7.3,2.2,9.9c0.6,0.2,1.2,0.3,1.9,0.2
		l2.8,1.6c-0.5,1.7-1.7,4.1-1.7,4.5c0.3,0.4,0.7,0.6,1.2,0.7c-2,5.6-2.9,14.2-2.7,22.3c0.1,5.4-1.9,10.6-2.6,15.6
		c2.5,1.4,4.3,2.4,7.2,3.1c-0.3,4.8,0.4,9.7,1,14.1c0.9,11.6,3.7,21.6,7.2,31c0.6,2.3-1.6,5.2-2.4,7.9c-0.9,1.2-1.4,1.7-1.6,3.3
		c-0.1,0.9-0.1,2.4,0.7,3.1c1.8,1.6,7.4,2.2,9.8,0.7c1.6-1,1.1-3.7,1-5.9c-0.3-2.6,1.2-3.6,1-5.9c-3.1-11.1-1.5-21.4-5.6-32.9
		c-0.6-4.4,0.6-10,0.7-13c3.8,0,8.1,0,12.2,0c1.9,5.7,4,10.8,6.8,14.7c1.7,3-2,4.9,6.4,23.5c0.3,1.7-1.1,3.1-0.3,5.7
		c-0.6,1.9-0.6,5.5,0.8,6.6c1.2,1.1,3.3,1.4,4.4,2.5c1.1,1.2,1.2,2.7,3.3,4.1c2.2,1.4,7.5,2.6,10,0c0.8-1.5,0.9-3.5-0.3-4.9
		c-0.4-0.5-0.9-0.9-1.4-1.4c1.1,0.3,6.1,1.7,8.5-0.1c0,0,0.3-3.1-0.4-5.5c0,0,0.5-5.1-0.3-5.9c0,0,0.2-1.9,0.3-2.7
		c0,0,1.1-1,3.3-0.7c2.2,0.3,2.3-0.2,2.3-0.2s-0.8,2.3-0.4,3.7c0.3,1.4,3.5,5.1,3.3,6.9l-0.1,0.3c0,0,0.9,0.6,1.8-0.1
		c0,0,0.2-0.9,0.7-2.5c0,0,2.9,2.9,3,3.8c0.1,0.9,0.9,1.2,0.9,1.2s5.1,2.4,9.9,0.4c0,0,0.4-1.2-0.4-2.1c-0.8-0.9-3-2.7-3-2.7
		l-3.9-3.8c0,0-1.7-3.7-2.1-4.2c-0.4-0.5-0.3-2.7-0.3-2.7s2.4-0.4,4.4-1.7c1.9-1.3,4.8-0.6,4.8-0.6s-0.1,1.1,0.6,1.2
		c0.6,0.1,4.9-0.4,6.2-0.7c0,0,4.9-1.3,6-1.9c1.1-0.7,3.4-1.4,4.2-1.3c0,0,0,0,0.1,0c0,0.1,0,0.3-0.1,0.5c-0.1,0.4,0.7,2,0.3,2.9
		c-0.4,0.8-0.1,2.1-0.1,2.7s-1.2,3.3-0.1,4.1l0.3,1.6c0,0,0.1,1.5,4.6,1.7c4.5,0.2,7.9-0.4,7.7-2.1c0,0-0.5-1.4-0.2-2.1
		c0.3-0.7,0.1-2.5-0.6-3.8c-0.7-1.3-0.3-2.5-0.8-3.9c-0.5-1.4-0.3-2.4,0.2-2.8c0.5-0.4,3.2-3.1,0.9-5.8c-0.1-0.1-0.2-0.2-0.3-0.3
		c-2.7-2.8-0.3-3.1,0.5-3.9c0.8-0.8,1.4-1.4,1.4-1.4s0.1-14.5-1.6-17.6c-1.7-3.2,1.5-9.3,1.5-9.3s-0.2-4.4-1-8c0,0,1.2-4.1,1.7-5.1
		c0.5-1,2.3-9.5,3.4-15.1c1-5.6,3.8-13.2,3.8-13.2s0.8-1.3,1,0.1c0.1,1.4,1.1,5.3,1.6,6.5c0.5,1.3-0.5,3.6-0.6,5.1
		c-0.1,1.5-0.7,2.6,0.8,5.2c1.6,2.5,0.4,5.9,0.2,6.9c-0.2,1-0.6,3.3-0.6,4.6c0,1.4,1.4,3.8,1.4,3.8s0,9.5,0.5,10.9
		c0.5,1.4,0.9,6.4,0.6,6.8c-0.3,0.3,0.7,8.3,0.3,9.6c-0.4,1.3,1.3,4.3,1.4,5.1c0.1,0.7-0.2,1.8-1,2.1c-0.7,0.3-1.8,1.4-1.5,2.1
		c0.3,0.7,2.5,3,1.6,3.5c-0.9,0.5-1.5,2.1-0.3,3c0,0,0.5,1.3,0,1.5c-0.5,0.2-0.2,2.2-0.2,2.6c0,0.4-0.9,1.7-0.3,2.7
		c0.6,1.1-0.1,3.8-0.1,3.8s3,2.3,8.4,1.2c0,0,1.4-0.1,1.4,0.7c0,0.8,2.4,4,13.9,2.2c0,0,1.6-0.5,0.6-2.2c0,0,2.5-1.7-1.5-3.6
		l-3.3-1.3c0,0-3.5-3.8-4.3-4.3c-0.8-0.5-0.6-1.5-0.2-1.4c0.4,0.1,1.8,0.2-1-1.4c0,0-0.8-1.8-0.4-2.2c0.4-0.4-0.3-1.5,0.5-2.5
		c0.8-1,2.1-4.5,1.6-7.2c-0.5-2.6-0.4-6.5,0.1-7.4c0.5-0.8,1.7-10.4,2.5-11.8c0.9-1.4,0.2-8.8,0.4-9.7c0.2-1,2.7-11.3,1.8-27.1
		c-0.6-9.4-1.3-18.1-1.8-24c1.6,2.1,4.3,5.6,4.3,5.6s0,1.2,2.4,9.5c2.4,8.3,3.8,15.3,3.8,23.2c0,7.9,2.3,2.7,2.3,12
		c0,9.2-1,4.1-1,13.5c0,9.5,0.3,6.6,1.9,10.7c1.6,4.1,1.7,7.3,1.7,13.6c0,6.3,1.1,6.3,1.1,6.3c-4.1,5-1.3,4.7-1.3,4.7l6.6,0.3
		c1.3,5.2,7.7,3.8,10.3,3.8s1.7-1.9,1.7-1.9c2-0.5,2-1.6,2-1.6s0-5.5,0-12.9s4.7-19.1,4.9-23.7c0.2-4.6,0.6-15.9,2.2-27.4
		c1.6-11.5,6.9-23.5,6-33.6c-0.9-9.7-2.5-16.4-3.6-27.1c1.4,3.7,3.3,8.8,5.5,13.3c0,0,3.2,1.3,3.5,2.8c0.5,2.7,0,4.4-0.3,5.4
		c-0.3,1-0.8,1.4-1.6,6c-0.1,0.7-0.2,1.3-0.2,1.8c-0.4,0-0.7,0-0.9,0.1c-0.6,0.5-1.4,1.1,0.8,3c1.2,1,2.5,2.6,3.7,3.4
		c-0.2,0.5-0.3,1-0.5,1.5c-0.7,2.2,0.2,1.9,1.2,1.2l0.1,45.6c0,0,0,0-0.1,0.1c-0.8,0.8-0.9,1.4-1.9,2.1c-0.9,0.6-1.1,0.6-1.7,1.7
		c-0.6,1.1-1.6,2.4-1.6,4.1c0,1.7-0.6-0.2-1.7,1.9c-1.1,2.1-2.4,5-3,10.1c-0.1,0.5,6.8,2.4,7.3,0.3c0.5-2.1,0.5-2.1,0.5-2.1
		s0.9,1.6,1.4,3.3c0.5,1.7,1.9,6.8,1.7,8.5c-0.2,1.7-0.5,2.1,0.2,2.4c0.6,0.3,1,0.5,1,1.1s-0.8,1.7-0.2,2.2c0.6,0.5,2.5,0.8,2.5,1.6
		c0,0.8-1.1,1.6,0,1.6c1.1,0-1.3,1.3-1.1,1.7c0.2,0.5,0.2,0.3,0.5,1.1c0.3,0.8,0.5,0.5,0.5,1.4c0,1,0.6,1.3,0.2,2.2
		c-0.5,0.9-1.6,2.7-1.6,3.1c0,0.5,1.3,0.8,4.3,1.3c3,0.5,4.7,2.4,5.7,0.8c1-1.6,0.6-1.4,1.6-1.6c1-0.2,1.9,0.5,4.1,0.2
		s2.2-0.3,2.2-0.3s2.4,1.3,3.9,1.6c1.6,0.3,2.2,0.3,1.9-1.4c-0.3-1.7,0.5-3.2,0.6-4.1c0.2-0.9,0-0.9,0.2-2c0.2-1.1,0.8,0.5,0.2-1.1
		c-0.6-1.6-0.6-1.6-0.6-1.6s0.5-0.5,0.8-0.9c0.1,0,0.2,0,0.2,0c0,0.4-0.1,0.9,0.1,0c4.3,0.2,8.5,0.1,12.7-0.2
		c1.5-0.3,1.7-2.6,0.4-6.8c0.4-1,0.4-1.7-0.2-1.8l0.4-1.5c0.7-0.5,0.8-1.1-0.1-2.2c-0.4-0.4-0.5-0.9-0.3-1.5c0.5-0.7,0.6-2,0-3.8
		L254,199l-0.7-9.9c-0.3-6.4-0.8-12.3-2.1-16.4c-0.7-2.9,0-5.4-0.2-8.2c-0.3-6.2-0.9-12.4-1.7-18.7c0.3-2.8,0.4-5.2-0.2-6.6
		c-0.5-1.6-0.7-3-0.3-4c0.4-0.7,0.8,0,1.1,1.6c0.2,1.2,0.8,2.4,1.8,3.6l2.6,12.5l1.2,4.1c-0.4,1-0.5,1.8-0.2,2.3
		c0.2,0.4,0.3,0.7,0,1.1c-0.5,0.9-0.3,1.8,0.4,2.4c1,0.8,1.2,1.4,0.7,1.9c-1,1-0.6,2.6,0.7,4.7c0.5,1,0.8,2,0.7,3
		c-1.1,1.1-1.4,4.4-1.2,9.2c0.3,5.9,0,10.4-0.5,14.4c-0.7,2.5-0.7,4-0.1,4.3c0.6,0.4,0.8,0.9,0.5,1.6c-0.5,0.9-0.5,2.3-0.2,3.8
		c-0.4,1-0.2,1.8,0.5,2.2c0.5,0.2,0.8,0.8,0.4,1.3c-0.5,0.5-0.3,1.1,0.2,1.7l0.5,0.6c-0.3,1-1.7,6.9,0.6,7
		c2.1,0.1,17.4,1.1,17.6-0.7c0.2-2.1-1.4-3.6-4.4-3.6c-1.4-0.7-2.4-1.6-3.2-2.6c-0.3-1.5-0.8-2-1.4-2.2c0.3-0.9,0.1-1.6-0.6-2.2
		c-0.6-0.4-0.5-0.8,0.3-1.1c1.3-0.6,1.7-2,0.4-2.7c-0.9-0.5-1-1.7-0.2-2.3c1.2-1.1,1.3-2.1,0.6-3.1l-0.6-1.1
		c0.7-0.9,1.4-2.1,1.6-3.1c1.1-6.7,1.1-14.7,1.5-21.6c0.1-2-0.1-3.9-0.4-6c-0.3-0.9-0.4-1.7-0.3-2.5c0.2-1,0.9-1.9-0.2-2.8
		c-0.3-0.3-0.5-0.7-0.4-1.4c0.2-1.3,1.3-1.7,0.4-3.1c-0.4-0.8-0.5-2.7-0.4-5.5c0.6-10,0.4-17.1-0.5-22c-0.4-1.9-0.6-3.7-0.6-5.5
		c1-0.7,1.2-1.7,1.1-2.9c-0.5-2.3,0-4.3,2.1-5.7c1.5-0.2,2.6-1.3,3.5-3l1.9-4.1c1.6-1.2,2.7-2.5,2.7-3.6l0.3,1.5
		c0.5-1.1,0.6-2.1,0.3-3.3C279.4,101.2,279.2,100.3,279.6,99.1z M55.7,46.4c0,0,0,0,0,0.1c0-0.1,0-0.3,0.1-0.4
		c0.1-0.1,0.6-0.3,0.6-0.3S55.8,45.9,55.7,46.4z M12.5,89c0.5-0.8,1.5-1.7,2-2.9c0.5-1.3,0.4-1.5,0.6-2.4c0.3-1,0.9-1.4,1.5-2.3
		c-2,4.8-0.8,3.7-2.9,6.2C13.4,88.1,13,88.5,12.5,89z M16.8,89.4c-0.9,1.4-2.5,1.9-3.1,4.1c-0.3,1.4,1.7,2.6,1.5,4.5
		c-0.3-2.8-2.3-2.5-2.4-4.6c0-1.4,2.5-3.2,3.5-4.3c1.6-1.9,0.7-2.1,1-4.3C17.3,86.6,18,87.6,16.8,89.4z M53.7,136.5
		c-0.1-0.4-0.3-0.9-0.6-1.3c-0.1-0.9,0.4-1.4,0.7-2C53.8,134.1,53.8,135.2,53.7,136.5z M53.2,153.5c0,0.3,0,0.6,0,0.9
		C53.1,154.1,53.1,153.8,53.2,153.5z M53.9,130.7c0-0.2,0-0.3-0.1-0.5c0,0.1,0.1,0.1,0.1,0.3C53.9,130.6,53.9,130.6,53.9,130.7z
		 M38.1,87.3c0-0.1,0-0.1,0.1-0.2c0.7,0.9,1.7,1,2.6,2.4c1.1,1.8-0.6,3.9-0.3,6.2c-0.4-0.2-0.7-0.5-1-0.9
		C37.9,92.9,42.5,91.1,38.1,87.3z M43.6,171.4c-0.8-3.6-2.2-7.6-3.8-11c-0.2-0.3,0.3-0.7,0.2-1.1c-0.2-0.6-0.8-1.1-1-1.7l0.5-0.4
		c0.3-1.3,0.4-2.7,0.5-4.2c2.2-2.8,2.8-7.5,3.2-12.5c0.3,0.9,0.8,1.4,1.5,1.6c-0.4,3.5,0.7,5.6,0.7,8.1c0,1.4-0.6,2.3-0.5,3.6
		c0,0.7,0.6,1.3,0.7,2c0.2,3.2-0.1,6.3-0.8,9.4l0.9,0.4C44.5,167.3,43.8,169.1,43.6,171.4z M45.7,177.3c1-0.9,0.1-2.3,0.4-4.4l0.4,0
		c-0.1,0.8,0.1,1.6,0.3,2.3l-0.1,2.1l-1,0.8L45.7,177.3z M49.8,201.2c-1-4.4-2.4-9.7-3.5-14l0.4,0l-0.3-5.2l2.9-3.4l0.4-2.2
		c0.7-0.8,1.3-1.8,1.7-2.9c0.2-2.1,0.1-4.3-0.1-6.5l0.5-0.1c-0.2-3.6,1.3-6.3,1-10.3c0.1-0.2,0.2-0.3,0.3-0.4
		c-0.5,17.8-0.9,39.5-0.3,46.8c0.7,8.1,0.4,12.2,0.1,14.2C52.2,211.5,51.2,206.2,49.8,201.2z M61.4,235.1c-0.4,0.9,0.3,3.1,1.1,4.2
		c-1.7-1.3-3.8-2.4-4.5-3.5c-0.6-0.9-0.7-2.2-1.4-3.1c-0.5-0.7-1.3,0.1-1.9-1.8c-0.2-1.4-0.3-2.8-0.5-4.1c1.3-0.1,5-0.3,6.1-0.4
		c1.3-0.1,2.9-0.5,2.9-0.5s-0.7,1.6-0.9,1.9c-0.1,0.3-0.7,1.4-0.7,2.3C61.7,230.9,61.9,234.1,61.4,235.1z M100.5,89.3
		c1.4-0.3,2.8-0.8,4.2-1.6c0,0,0.9-0.5,0.2,1.3c-0.7,1.8-1.4,3.8,0.1,5.5c1.5,1.7,1.7,2,1.7,2.7s1.5,0.5,1.6,0.2
		c0.1-0.3,1.7-0.2,1.9,1.4c0,0-1.3,1.2-1.4,3.8c-0.1,2.6-0.5,2.5,0.2,3.9c0.4,0.7-0.2,3.1-0.8,5.2c-0.1-0.2-0.2-0.4-0.2-0.4
		c-0.4-0.5-1.6-7.3-2.4-8C104.8,102.6,104.9,97.9,100.5,89.3z M102.6,130.7c0,0-0.1-1,0.4-1c0.3,0,2.1-2.8,3.6-5.6
		c0.1,0.2,0.2,0.4,0.2,0.7c0,0-0.2,4.7-0.4,5.2c-0.2,0.4-0.3,9.3-0.5,10.1c-0.2,0.8,0.8,11.9,3.4,17.3c0,0,0,0.6-0.2,1.8
		c-0.2,1.2-1.1,4.5,0.2,7.1c1.3,2.5-0.4,3.6-0.4,3.6s-0.2,2.5-0.3,5.4C106.6,157.3,103.7,134.1,102.6,130.7z M153.6,96.3
		c-1.3-2.1-1.5-4.4-1.4-4.8c0.1-0.4,0-2.3,0-2.3s1.5-1.4,1.1-3.7c-0.4-2.3-1.1-5.8-1.5-6.8c-0.4-0.9,2-0.2,2-0.2s1.4,0.4,2.8,0.5
		c-0.3,2.2-1.2,5.6-1.8,9.2c-0.7,4.4,0.1,9.5,0.6,15.3c0,0.4,0,0.7,0.1,1C154.9,100.9,154.2,97.3,153.6,96.3z M167.1,94.1
		c-1.6,7-2.7,18.5-2.7,18.5c-3-5.5-2.7-11.4-1.6-16.9c1.1-5.5,1.3-5.4,1.6-11.5c0.2-4.4,1.2-7.6,1.9-9.6c0.4-0.4,0.8-0.9,1.3-1.3
		c0.1,1.2,0.3,2.7,0.9,4.1C169.6,79.9,168.7,87.2,167.1,94.1z M182.5,167c0,0,0.5-12.3-0.3-18.3c-0.8-6,2.8-17.2,2.8-17.2
		C187.4,141.5,182.5,167,182.5,167z M244.2,204.7c0-0.2,0-0.4,0-0.6C244.2,204.3,244.2,204.5,244.2,204.7z M242.7,212.7
		c0-0.2,0-0.4,0.1-0.7c0.2-0.6,0.6-0.6,0.5-1.9c-0.2-1.3-0.6-1.4-0.6-1.9c0-0.2,0.5-0.8,0.9-1.4c0.2,0.3,0.4,0.5,0.8,0.6
		c0.7,0.3,0.8,0.9,1,1.5C244.6,210.3,243.7,211.6,242.7,212.7z"/>
</g>
</svg>
