<?xml version="1.0" encoding="utf-8"?>
<!-- Generator: Adobe Illustrator 21.1.0, SVG Export Plug-In . SVG Version: 6.00 Build 0)  -->
<svg version="1.1" id="Layer_1" xmlns="http://www.w3.org/2000/svg" xmlns:xlink="http://www.w3.org/1999/xlink" x="0px" y="0px"
	 viewBox="0 0 85 75" style="enable-background:new 0 0 85 75;" xml:space="preserve">
<style type="text/css">
	.st0{fill:#38B5E5;}
	.st1{filter:url(#Adobe_OpacityMaskFilter);}
	.st2{opacity:0.5;mask:url(#SVGID_1_);}
	.st3{fill:#F9F9F9;}
	.st4{fill:url(#SVGID_2_);}
	.st5{fill:#FCC070;}
	.st6{fill:#FFFFFF;}
	.st7{fill:#8C4709;}
	.st8{fill:#6D3713;}
	.st9{fill:#6D3713;stroke:#8C4709;stroke-width:4.4705;stroke-miterlimit:10;}
	.st10{opacity:0.1;fill:#8C4709;}
	.st11{fill:#E6E7E8;stroke:#414042;stroke-miterlimit:10;}
	.st12{fill:url(#SVGID_3_);}
	.st13{filter:url(#Adobe_OpacityMaskFilter_1_);}
	.st14{opacity:0.5;mask:url(#SVGID_4_);}
	.st15{fill:url(#SVGID_5_);}
	.st16{fill:#D3CCC7;}
	.st17{fill:url(#SVGID_6_);}
	.st18{fill:none;stroke:#59371F;stroke-width:3.8076;stroke-linecap:square;stroke-miterlimit:10;}
	.st19{fill:#59371F;}
	.st20{fill:#F1F2F2;}
	.st21{fill:#BBCC9E;}
	.st22{fill:url(#SVGID_7_);}
	.st23{fill:none;stroke:#753103;stroke-width:3.8076;stroke-linecap:square;stroke-miterlimit:10;}
	.st24{fill:#753103;}
	.st25{fill:#FFFFFF;stroke:#753103;stroke-width:1.1471;stroke-linecap:square;stroke-miterlimit:10;}
	.st26{fill:url(#SVGID_8_);}
	.st27{opacity:0.5;fill:#CEC919;}
	.st28{fill:#99967A;}
	.st29{fill:#19CE5A;}
	.st30{filter:url(#Adobe_OpacityMaskFilter_2_);}
	.st31{opacity:0.5;mask:url(#SVGID_9_);}
	.st32{fill:url(#SVGID_10_);}
	.st33{fill:url(#SVGID_11_);}
	.st34{fill:url(#SVGID_12_);}
	.st35{fill:#19BDCE;}
	.st36{filter:url(#Adobe_OpacityMaskFilter_3_);}
	.st37{opacity:0.5;mask:url(#SVGID_13_);}
	.st38{fill:url(#SVGID_14_);}
	.st39{fill:#13A543;}
	.st40{fill:url(#SVGID_15_);}
	.st41{fill:url(#SVGID_16_);}
	.st42{fill:url(#SVGID_17_);}
	.st43{fill:url(#SVGID_18_);}
	.st44{fill:url(#SVGID_19_);}
	.st45{fill:url(#SVGID_20_);}
	.st46{fill:url(#SVGID_21_);}
	.st47{fill:url(#SVGID_22_);}
	.st48{fill:url(#SVGID_23_);}
	.st49{fill:url(#SVGID_24_);}
	.st50{fill:url(#SVGID_25_);}
	.st51{fill:url(#SVGID_26_);}
	.st52{fill:url(#SVGID_27_);}
	.st53{fill:url(#SVGID_28_);}
	.st54{fill:url(#SVGID_29_);}
	.st55{fill:url(#SVGID_30_);}
	.st56{fill:url(#SVGID_31_);}
	.st57{fill:url(#SVGID_32_);}
	.st58{fill:url(#SVGID_33_);}
	.st59{fill:url(#SVGID_34_);}
	.st60{fill:url(#SVGID_35_);}
	.st61{fill:url(#SVGID_36_);}
	.st62{fill:#CEC919;}
	.st63{opacity:0.5;fill:#B7AF1A;}
	.st64{fill:url(#SVGID_37_);}
	.st65{fill:#0C7277;}
	.st66{fill:#10818C;}
	.st67{fill:url(#SVGID_38_);}
	.st68{fill:none;stroke:#FFFFFF;stroke-width:0.9712;stroke-miterlimit:10;}
	.st69{fill:url(#SVGID_39_);}
	.st70{fill:url(#SVGID_40_);}
	.st71{fill:url(#SVGID_41_);}
	.st72{fill:url(#SVGID_42_);}
	.st73{fill:url(#SVGID_43_);}
	.st74{filter:url(#Adobe_OpacityMaskFilter_4_);}
	.st75{opacity:0.5;mask:url(#SVGID_44_);}
	.st76{fill:#F7941D;}
	.st77{fill:#C2B59B;}
	.st78{fill:#FBB040;}
	.st79{fill:#CC83AE;}
	.st80{fill:#9B7A1F;}
	.st81{fill:#050505;}
	.st82{fill-rule:evenodd;clip-rule:evenodd;fill:#BEE4F0;}
	.st83{fill:#BEE4F0;}
	.st84{fill-rule:evenodd;clip-rule:evenodd;fill:url(#SVGID_45_);}
	.st85{fill-rule:evenodd;clip-rule:evenodd;fill:url(#SVGID_46_);}
	.st86{fill:url(#SVGID_47_);}
	.st87{fill:url(#SVGID_48_);}
	.st88{fill:url(#SVGID_49_);}
	.st89{fill:#A7A9AC;}
	.st90{fill:#CE1949;}
	.st91{fill:#BA1749;}
	.st92{fill:#1795D0;}
	.st93{fill:#117CAE;}
	.st94{filter:url(#Adobe_OpacityMaskFilter_5_);}
	.st95{opacity:0.75;mask:url(#SVGID_50_);}
	.st96{fill:url(#SVGID_51_);}
	.st97{fill:url(#SVGID_52_);}
	.st98{fill:#EAD93B;}
	.st99{fill:none;stroke:#914F13;stroke-width:1.5;stroke-linecap:round;stroke-miterlimit:10;}
	.st100{fill:#914F13;}
	.st101{fill:#231F20;}
	.st102{fill:none;stroke:#414042;stroke-width:5.4063;stroke-miterlimit:10;}
	.st103{filter:url(#Adobe_OpacityMaskFilter_6_);}
	.st104{opacity:0.55;mask:url(#SVGID_53_);}
	.st105{fill:none;stroke:#FFFFFF;stroke-width:5.4063;stroke-miterlimit:10;}
	.st106{fill:#414042;}
	.st107{fill:#F1F2F2;stroke:#000000;stroke-width:3.4864;stroke-miterlimit:10;}
	.st108{fill:#6D6E71;}
	.st109{opacity:0.5;fill:#19BDCE;}
	.st110{opacity:0.5;fill:#19CE5A;}
	.st111{fill:#D1D3D4;}
	.st112{opacity:0.95;fill:#8CE6AC;}
	.st113{fill:#043464;}
	.st114{opacity:0.8;fill:#FFFFFF;}
	.st115{fill:url(#SVGID_54_);}
	.st116{fill:url(#SVGID_55_);}
	.st117{fill:url(#SVGID_56_);}
	.st118{fill:url(#SVGID_57_);}
	.st119{fill:url(#SVGID_58_);}
	.st120{opacity:0.5;fill:#CE7419;}
	.st121{opacity:0.5;}
	.st122{fill:#CE7419;}
	.st123{fill:#68300B;}
	.st124{opacity:0.3;fill:#10818C;}
	.st125{fill:#148D93;}
	.st126{fill:url(#SVGID_59_);}
	.st127{fill:#11676B;}
	.st128{fill:url(#SVGID_60_);}
	.st129{fill:#D3C8AE;}
	.st130{fill:url(#SVGID_61_);}
	.st131{fill:#603913;}
	.st132{opacity:0.85;fill:url(#SVGID_62_);}
	.st133{opacity:0.85;fill:url(#SVGID_63_);}
	.st134{fill:#E6E7E8;}
	.st135{fill:url(#SVGID_64_);}
	.st136{fill:url(#SVGID_65_);}
	.st137{opacity:0.2;fill:none;stroke:#A7A9AC;stroke-width:0.3871;stroke-miterlimit:10;}
	.st138{fill:url(#SVGID_66_);}
	.st139{fill:url(#SVGID_67_);}
	.st140{opacity:0.85;fill:url(#SVGID_68_);}
	.st141{opacity:0.85;fill:url(#SVGID_69_);}
	.st142{opacity:0.1;fill:#CEC919;}
	.st143{fill:url(#SVGID_70_);}
	.st144{opacity:0.85;fill:url(#SVGID_71_);}
	.st145{opacity:0.85;fill:url(#SVGID_72_);}
	.st146{fill:url(#SVGID_73_);}
	.st147{fill:url(#SVGID_74_);}
	.st148{filter:url(#Adobe_OpacityMaskFilter_7_);}
	.st149{opacity:0.75;mask:url(#SVGID_75_);}
	.st150{fill:url(#SVGID_76_);}
	.st151{fill:#B51848;}
	.st152{opacity:0.8;}
	.st153{fill:url(#SVGID_77_);stroke:#BC6619;stroke-width:1.9011;stroke-linejoin:round;stroke-miterlimit:10;}
	.st154{fill:url(#SVGID_78_);}
	.st155{fill:url(#SVGID_79_);}
	
		.st156{fill:url(#SVGID_80_);stroke:#BC6619;stroke-width:1.9011;stroke-linecap:round;stroke-linejoin:round;stroke-miterlimit:10;}
	.st157{fill:none;}
	.st158{fill:#754C29;}
	.st159{filter:url(#Adobe_OpacityMaskFilter_8_);}
	.st160{opacity:0.75;mask:url(#SVGID_81_);}
	.st161{fill:#664024;}
	.st162{opacity:0.6;fill:#FFFFFF;}
	.st163{fill:none;stroke:#FFFFFF;stroke-width:0.8502;stroke-miterlimit:10;}
	.st164{fill:#4D7C37;}
	.st165{fill:#999697;}
	.st166{fill:#BCBCBC;}
	.st167{fill:#B2B1B1;}
	.st168{opacity:0.3;}
	.st169{opacity:0.8;fill:#19CE5A;}
	.st170{opacity:0.8;fill:#F9F1D7;}
	.st171{opacity:0.8;fill:#A7A9AC;}
	.st172{fill:#A97C50;}
	.st173{fill:#C49A6C;}
	.st174{opacity:0.6;fill:#C2B59B;}
	.st175{fill:url(#SVGID_82_);}
	.st176{fill:url(#SVGID_83_);}
	.st177{fill:url(#SVGID_84_);}
	.st178{fill:url(#SVGID_85_);}
	.st179{opacity:0.2;fill:#FFFFFF;}
	.st180{opacity:0.8;fill:#939598;}
	.st181{filter:url(#Adobe_OpacityMaskFilter_9_);}
	.st182{opacity:0.75;mask:url(#SVGID_86_);}
	.st183{opacity:0.2;fill:#043464;}
	.st184{opacity:0.5;fill:#FFFFFF;}
	.st185{fill:url(#SVGID_87_);}
	.st186{fill:url(#SVGID_88_);}
	.st187{fill:url(#SVGID_89_);}
	.st188{opacity:0.2;fill:none;stroke:#A7A9AC;stroke-miterlimit:10;}
	.st189{filter:url(#Adobe_OpacityMaskFilter_10_);}
	.st190{opacity:0.75;mask:url(#SVGID_90_);}
	.st191{fill:none;stroke:#939598;stroke-width:4;stroke-linecap:round;stroke-miterlimit:10;}
	.st192{fill:#58595B;}
	.st193{filter:url(#Adobe_OpacityMaskFilter_11_);}
	.st194{opacity:0.75;mask:url(#SVGID_91_);}
	.st195{fill:url(#SVGID_92_);}
	.st196{fill:url(#SVGID_93_);}
	.st197{fill:url(#SVGID_94_);}
	.st198{filter:url(#Adobe_OpacityMaskFilter_12_);}
	.st199{opacity:0.75;mask:url(#SVGID_95_);}
	.st200{fill:#0A6FA2;}
	.st201{filter:url(#Adobe_OpacityMaskFilter_13_);}
	.st202{opacity:0.75;mask:url(#SVGID_96_);}
	.st203{fill:#0A70A3;}
	.st204{filter:url(#Adobe_OpacityMaskFilter_14_);}
	.st205{opacity:0.75;mask:url(#SVGID_97_);}
	.st206{filter:url(#Adobe_OpacityMaskFilter_15_);}
	.st207{opacity:0.75;mask:url(#SVGID_98_);}
	.st208{filter:url(#Adobe_OpacityMaskFilter_16_);}
	.st209{opacity:0.75;mask:url(#SVGID_99_);}
	.st210{filter:url(#Adobe_OpacityMaskFilter_17_);}
	.st211{opacity:0.75;mask:url(#SVGID_100_);}
	.st212{fill:none;stroke:#FFFFFF;stroke-miterlimit:10;}
	.st213{fill:none;stroke:#043464;stroke-width:0.5;stroke-miterlimit:10;}
	.st214{fill:none;stroke:#C1272D;stroke-miterlimit:10;}
	.st215{fill:#821921;}
</style>
<g>
	<path class="st82" d="M5.3,25.7c0,0.6,0.2,0.9-0.2,1.4c-0.3,0.4-0.8,0.6-0.9,1.3c-0.1,0.4,0.5,0.8,0.4,1.4
		c-0.1-0.9-0.7-0.7-0.7-1.4c0-0.4,0.8-1,1.1-1.3C5.5,26.4,5.2,26.3,5.3,25.7L5.3,25.7z M4.1,25.6c-0.1,0.3-0.1,0.5-0.3,0.7
		C3.5,26.7,3.1,27,3,27.3c-0.8,1.4,1.1,2.1,1.1,2.6c-0.4,0.1-0.7,0.3-0.3,1.3c-0.6,0-0.9-0.2-0.9,0.4c-0.4,0.1-0.8,0.3-1.2,0.6
		c-0.3,0.4-0.1,1-0.2,1.7c-0.1,1-0.6,1.7-0.2,2.1c-0.4,0.7,0,0.8-0.2,1.1c-0.7,0.3-0.2,0.8-0.5,1.1c-0.2,0.1-0.3,0.4-0.3,0.8
		c-0.6,1.3-0.1,2.2,0.7,3C1.1,42,1.3,42.1,1.5,42l0.8,0.5c-0.1,0.5-0.5,1.2-0.5,1.4c0.1,0.1,0.2,0.2,0.4,0.2
		c-0.6,1.7-0.9,4.3-0.8,6.8c0,1.6-0.6,3.2-0.8,4.7c0.8,0.4,1.3,0.7,2.2,0.9c-0.1,1.5,0.1,2.9,0.3,4.3c0.3,3.5,1.1,6.5,2.2,9.4
		c0.2,0.7-0.5,1.6-0.7,2.4c-0.3,0.4-0.4,0.5-0.5,1c0,0.3,0,0.7,0.2,0.9c0.5,0.5,2.2,0.7,3,0.2c0.5-0.3,0.3-1.1,0.3-1.8
		c-0.1-0.8,0.4-1.1,0.3-1.8c-1-3.4-0.4-6.5-1.7-10c-0.2-1.3,0.2-3,0.2-3.9c1.2,0,2.5,0,3.7,0c0.6,1.7,1.2,3.3,2.1,4.4
		c0.5,0.9-0.6,1.5,2,7.1c0.1,0.5-0.3,1-0.1,1.7c-0.2,0.6-0.2,1.7,0.2,2c0.4,0.3,1,0.4,1.3,0.8c0.3,0.4,0.4,0.8,1,1.2
		c0.7,0.4,2.3,0.8,3,0c0.2-0.5,0.3-1.1-0.1-1.5c-0.5-0.6-1.6-1.1-1.9-1.6c-0.2-0.3-0.2-0.7-0.4-0.9c-0.1-0.2-0.4,0-0.6-0.5
		c-0.4-3.1-0.7-6.2-1.5-9c-0.3-1.3-0.7-2.9-1.1-4.2l0.1,0l-0.1-1.6l0.9-1l0.1-0.7c0.2-0.3,0.4-0.5,0.5-0.9c0.1-0.6,0-1.3,0-2l0.1,0
		c-0.1-1.1,0.4-1.9,0.3-3.1c0.3-0.5,0-0.6,0.1-0.9c0.4-1,0-2.6,0.2-3.7c0.1-0.4-0.1-0.5,0-0.7c0.1-0.4,0-0.8-0.2-1.2
		c0-0.4,0.3-0.5,0.3-1c-0.1-1.1-0.5-2.4-0.5-3.6c0-1.2-0.3-2.8-0.5-3.2c-0.2-0.2-0.4-0.4-0.7-0.6c0-0.3-0.4-0.6-1.1-0.9
		c0.3-2.1-0.1-2.3-0.7-2.4c-0.2-0.7,0.2-1.4-0.1-2c-0.4-1-0.9-1.3-1.2-2.4c-0.1-1-0.3-2.1-0.7-2.7c-1.3-1.8-3.8-1.9-5-0.3
		c-0.3,0.3-0.7,0.8-1.1,1.4c-0.3,0.5-0.6,1.5-1.1,1.9c-2.3,1.7-2.8,3.8-0.4,4.3C2.6,29,2,27.4,3.6,26.5C3.7,26.4,4,26.1,4.1,25.6
		L4.1,25.6z M5,24.7c-0.6,1.5-0.2,1.1-0.9,1.9c-0.1,0.1-0.2,0.3-0.4,0.4c0.1-0.2,0.4-0.5,0.6-0.9c0.2-0.4,0.1-0.5,0.2-0.7
		C4.7,25,4.9,24.9,5,24.7L5,24.7z M12.3,29c-0.1-0.1-0.2-0.1-0.3-0.3c-0.5-0.6,0.9-1.1-0.4-2.3c0,0,0,0,0-0.1
		c0.2,0.3,0.5,0.3,0.8,0.7C12.7,27.7,12.2,28.3,12.3,29L12.3,29z M13,42.6c-0.1,1.5-0.3,2.9-1,3.8c0,0.4-0.1,0.9-0.1,1.3l-0.1,0.1
		c0.1,0.2,0.2,0.3,0.3,0.5c0,0.1-0.1,0.2,0,0.3c0.5,1,0.9,2.2,1.2,3.3c0.1-0.7,0.3-1.3,0.6-1.7l-0.3-0.1c0.2-0.9,0.3-1.9,0.2-2.9
		c0-0.2-0.2-0.4-0.2-0.6c0-0.4,0.2-0.7,0.2-1.1c0-0.8-0.3-1.4-0.2-2.4C13.3,43,13.1,42.9,13,42.6L13,42.6z M13.8,53.7l0,0.2l0.3-0.3
		l0-0.6c-0.1-0.2-0.1-0.4-0.1-0.7l-0.1,0C13.9,53,14.1,53.5,13.8,53.7L13.8,53.7z"/>
	<path class="st83" d="M36.6,0.3c0,0-1-0.8-2.5,0.4c0,0-1.5,1-1.4,2.2c0,0,0,0.5,0,0.8c0,0.3,0.1,0.5,0.1,0.7c0,0.2,0,0.5,0,0.5
		S32,5.1,33.6,6.9L34,8.5c0,0-0.4,0.2-0.5,1.6c0,0-0.4,0.3-0.5,0.2c0,0-0.4,0.2-0.5,0.4c-0.1,0.2-0.8,0.7-1.3,1
		c-0.5,0.3-2.3,1.5-2.4,1.7c0,0-1.1,1.9-1.2,2.6c-0.1,0.6-0.5,1.4-0.4,2.2c0,0-0.4,5.4-0.2,5.7c0,0-0.4,0.9-0.2,1.4
		c0.1,0.5,1.2,1.9,1.2,1.9s1.9,0.4,3.8-0.6c0,0,0.3-0.2,0.1,0.4c-0.2,0.5-0.4,1.1,0,1.7s0.5,0.6,0.5,0.8c0,0.2,0.4,0.2,0.5,0.1
		c0-0.1,0.5-0.1,0.6,0.4c0,0-0.4,0.4-0.4,1.2c0,0.8-0.2,0.8,0.1,1.2c0.2,0.4-0.6,2.6-0.6,2.6s-0.7,1.3-0.1,2.9c0,0-0.1,1.4-0.1,1.6
		c-0.1,0.1-0.1,2.8-0.2,3.1c-0.1,0.3,0.3,3.6,1,5.2c0,0,0,0.2-0.1,0.5c-0.1,0.4-0.3,1.4,0.1,2.1c0.4,0.8-0.1,1.1-0.1,1.1
		s-0.2,3.4,0,4.3c0.2,0.9,0.2,2.8,0.1,3.1c0,0.3-0.6,3.1-0.2,3.5c0.4,0.4,1,0.4,0.9,0.7c-0.1,0.4-0.5,1.1-0.4,1.5
		c0,0-0.4,0.4-0.2,0.7c0,0,0.4,0.4,0.8,0.6c0,0,0,0.1,0,0.2c0,0.1,0.2,0.6,0.1,0.9c-0.1,0.3,0,0.6,0,0.8c0,0.2-0.4,1,0,1.2l0.1,0.5
		c0,0,0,0.4,1.4,0.5c1.4,0.1,2.4-0.1,2.3-0.6c0,0-0.2-0.4-0.1-0.6c0.1-0.2,0-0.8-0.2-1.1c-0.2-0.4-0.1-0.8-0.3-1.2
		c-0.2-0.4-0.1-0.7,0.1-0.9c0.2-0.1,1-0.9,0.3-1.8c0,0,0-0.1-0.1-0.1c-0.8-0.9-0.1-0.9,0.2-1.2c0.3-0.3,0.4-0.4,0.4-0.4
		s0-4.4-0.5-5.3c-0.5-1,0.4-2.8,0.4-2.8s-0.1-1.3-0.3-2.4c0,0,0.4-1.2,0.5-1.5c0.2-0.3,0.7-2.9,1-4.6c0.3-1.7,1.1-4,1.1-4
		s0.3-0.4,0.3,0c0,0.4,0.3,1.6,0.5,2c0.2,0.4-0.2,1.1-0.2,1.5c0,0.4-0.2,0.8,0.3,1.6c0.5,0.8,0.1,1.8,0.1,2.1
		c-0.1,0.3-0.2,1-0.2,1.4c0,0.4,0.4,1.2,0.4,1.2s0,2.9,0.2,3.3c0.2,0.4,0.3,1.9,0.2,2c-0.1,0.1,0.2,2.5,0.1,2.9
		c-0.1,0.4,0.4,1.3,0.4,1.5c0,0.2-0.1,0.5-0.3,0.6c-0.2,0.1-0.5,0.4-0.4,0.6c0.1,0.2,0.8,0.9,0.5,1.1c-0.3,0.2-0.4,0.6-0.1,0.9
		c0,0,0.2,0.4,0,0.5c-0.2,0.1-0.1,0.7-0.1,0.8c0,0.1-0.3,0.5-0.1,0.8c0.2,0.3,0,1.2,0,1.2s0.9,0.7,2.6,0.4c0,0,0.4,0,0.4,0.2
		c0,0.3,0.7,1.2,4.2,0.7c0,0,0.5-0.2,0.2-0.7c0,0,0.8-0.5-0.4-1.1l-1-0.4c0,0-1.1-1.2-1.3-1.3c-0.3-0.2-0.2-0.4-0.1-0.4
		c0.1,0,0.5,0.1-0.3-0.4c0,0-0.3-0.5-0.1-0.7c0.1-0.1-0.1-0.4,0.2-0.8c0.3-0.3,0.6-1.4,0.5-2.2c-0.2-0.8-0.1-2,0-2.2
		c0.2-0.3,0.5-3.2,0.8-3.6c0.3-0.4,0.1-2.7,0.1-2.9c0.1-0.3,0.8-3.4,0.5-8.2c-0.3-4.8-0.7-9.1-0.7-9.5c0-0.4-0.5-4.4-0.9-5
		c-0.4-0.6-0.4-1.3-0.4-1.5c0-0.1,0-0.7,0-0.7s0.4-0.4,0.3-1.1c-0.1-0.7-0.3-1.8-0.4-2c-0.1-0.3,0.6-0.1,0.6-0.1s1.2,0.4,1.5,0
		c0.2-0.3,0.7-0.5,0.7-0.5s0.9-0.3,1.1-0.3c0.3,0,2.4-2.5,2.4-2.7c0-0.2-0.3-0.4-0.3-0.6c0-0.2-0.9-2.8-0.9-2.8l-1.4-1.7
		c0,0,0.3-0.8-0.7-1.3l-0.3-0.6c0,0,0.7-0.4,0.5-0.9c-0.2-0.4-0.5-0.5-0.5-0.5s-0.4-1-0.3-1.2c0.1-0.3-0.6-1.1-0.8-1.5
		c-0.2-0.4-1.7-2-3.9-0.8c0,0-0.6,0.3-0.7,0.7l-0.4,0.5c0,0,0.1,0.4-0.1,0.4c-0.2,0-1-0.3-1.7-0.4c-0.7-0.1-1.5-0.4-1.5-0.4
		s0.2-0.6-0.5-1.1c0,0,0-0.1,0-0.3c0-0.2,0.3-1.1,0.2-2.1c0,0,0-0.6,0.1-0.8c0.1-0.2,0-0.8,0-0.8s0.4-0.4,0-1.3c0,0,0.1-0.8-0.5-1.5
		C37.9,0.6,37.2-0.1,36.6,0.3z"/>
	<path class="st83" d="M23.8,17.4c0,0,0.2,0.1,0.2,0c0-0.1,0.3,0,0.4-0.1c0.1-0.2,0-1,0-1.1c-0.1-0.1-0.1-0.3,0-0.4
		c0.1,0,0.3-0.4,0.4-0.7c0.1-0.3,0.2-0.6,0-0.7c-0.1-0.1-0.2-0.4-0.2-0.5c0-0.1-0.3-0.4-0.3-0.4s0.2,0,0.2,0.3c0,0,0,0.2,0-0.1
		c0-0.2,0-0.3-0.1-0.4c0,0,0,0,0,0c-0.1-0.1-0.1-0.1-0.1-0.1l0.1,0c0,0,0.2,0.2,0.2,0.2c0,0-0.1-0.2-0.1-0.2c0,0,0.1,0,0.1,0
		c0-0.1,0-0.4-0.2-0.5c-0.2-0.1-0.4-0.5-0.5-0.5c-0.1,0-0.9-0.7-1-0.8c0-0.1-0.9-0.5-1-0.4c-0.1,0-0.5-0.1-0.5-0.1s-0.7-0.1-0.8,0.1
		c-0.1,0.1-0.5,0-0.6,0.1c-0.1,0.1-0.5-0.2-0.8,0.1c0,0-0.1,0.1-0.2,0.1c-0.1,0-0.1,0-0.1,0s-0.2,0.2-0.3,0.3
		c-0.1,0.1-0.4,0.2-0.5,0.5c-0.1,0.3-0.3,0.3-0.3,0.3s-0.6,0.5-0.5,0.6c0.1,0.1-0.2,0.7-0.3,0.7c-0.1,0-0.3,0.3-0.2,0.5l0,0
		c0,0,0-0.1,0-0.2c0,0,0.2-0.1,0.2-0.1s-0.2,0-0.2,0.2c0,0,0,0.1,0,0.1c0,0,0,0.3,0.1,0.3c0.1,0.1,0.1,0.4,0.1,0.6
		c0,0,0,0.9,0.1,1.1c0,0.2,0.3,0.5,0.4,0.6c0.1,0.1,0,0.8,0.4,0.9l0.3,0c0,0,0.1,0.2,0.1,0.3c0,0.1,0.1,0.3,0.1,0.3s0.1,0.3,0.3,0.2
		c0,0,0.2,0.2,0.3-0.1c0.1-0.3,0.2,0,0.2,0s0.3,0.5,0.3,0.6c0,0-0.1,0-0.1,0.1c0,0.1-0.3,0.9-0.3,0.9s-0.3,0.1-0.3,0.4
		c0,0-0.1,0.3-0.3,0.3c-0.1,0-0.2,0.2-0.2,0.2l-0.4,0.2c0,0-1.4,0.4-2.6,1.1c0,0-0.6,0.5-0.6,0.7c0,0.2-0.5,1.8-0.6,2.6
		c-0.1,0.8,0,3.4,0,4.2c0,0.8-0.2,5.8-0.1,6c0.1,0.2,0.5,1.5,0.8,1.7c0.3,0.2,1.1,1.8,1.5,1.8c0,0,0.1,0,0.1,0.1
		c0,0.1-0.7,18-0.3,21.9c0.3,3.9-0.1,4.8-0.1,4.8s-0.1,2,0.4,2.5c0,0,1.6-0.1,2-0.1c0.4,0,0.9-0.2,0.9-0.2S19,68.9,18.9,69
		c0,0.1-0.2,0.4-0.2,0.7c0,0.3,0,1.3-0.1,1.5c-0.1,0.3,0.1,1.1,0.4,1.3c0,0,1.8,0.6,2.6,0c0,0,0.1-1-0.1-1.7c0,0,0.2-1.6-0.1-1.8
		c0,0,0.1-0.6,0.1-0.8c0,0,0.3-0.3,1-0.2c0.7,0.1,0.7-0.1,0.7-0.1s-0.2,0.7-0.1,1.1c0.1,0.4,1.1,1.6,1,2.1l0,0.1c0,0,0.3,0.2,0.5,0
		c0,0,0.1-0.3,0.2-0.8c0,0,0.9,0.9,0.9,1.1c0,0.3,0.3,0.4,0.3,0.4s1.5,0.7,3,0.1c0,0,0.1-0.4-0.1-0.6c-0.2-0.3-0.9-0.8-0.9-0.8
		l-1.2-1.1c0,0-0.5-1.1-0.6-1.3C26,68,26,67.4,26,67.4s0.7-0.1,1.3-0.5c0.6-0.4,1.4-0.2,1.4-0.2s0,0.3,0.2,0.4
		c0.2,0,1.5-0.1,1.9-0.2c0,0,1.5-0.4,1.8-0.6c0.3-0.2,1-0.4,1.3-0.4c0.3,0,0.6-0.3,0.6-0.3s-0.8-4-1-6.2c-0.2-2.2-2-18.1-2.5-19.7
		c0,0,0-0.3,0.1-0.3s1.7-2.6,1.8-3.3c0.1-0.8,0.4-0.6,0.2-0.9C33,34.8,33,34.6,33,34.6s-0.2-0.8-0.3-1c-0.1-0.2-0.5-2.2-0.7-2.4
		c-0.2-0.2-0.2-1.8-1.8-4.7c0,0-0.6-0.9-0.6-1.1s-0.2-1-0.3-1.2c-0.1-0.2-0.7-1.2-0.6-1.3c0.1-0.1-0.2-0.6-3-1.4
		c0,0-1.1-0.3-1.2-0.3c-0.1-0.1-0.5-0.7-0.6-0.7c-0.1,0-0.1-0.4-0.2-0.5c0,0-0.1-0.4-0.4-0.7c0,0,0-0.6,0-0.7
		C23.4,18.6,23.6,18.3,23.8,17.4z"/>
	<path class="st83" d="M74,62.2c-0.1-0.3-0.1-0.3,0-0.5c0-0.2,0,0.1-0.1-0.6c-0.1-0.7-0.1-0.6-0.1-1.1c0-0.6,0.4-1.7-0.4-2.4
		c-0.9-0.7-0.6-0.4-1.1-0.8c-0.5-0.4-0.6-0.2-1-0.5c-0.3-0.3,0.2,0.1-0.3-0.3c-0.6-0.4-0.3-0.3-0.6-0.4c-0.3-0.1,0.6-0.2-0.5-0.2
		c-1.1,0-0.6,0.1-1.3-0.3c-0.7-0.4-0.8-0.2-1.1-0.5c-0.4-0.3-0.3-0.5-1.1-0.5c-0.7,0-0.3,0.1-1,0.2c-0.4,0.1-0.5,0.1-0.5,0.1l0-13.8
		c0,0,0.1-0.1,0.1-0.1c0.3-0.3,0.6-0.9,0.8-1.3c0.2-0.4,0.6-0.9,0.4-1.1c-0.1-0.2-0.4-2.2-0.5-2.7c-0.1-0.4,0.2-4.2-1.4-8.1
		c-0.1-0.4-0.2-0.8-0.3-1.3c-0.2-2-0.1-6.2-0.2-6.8c0-0.6,0.2-0.9,0.5-1.1c0.3-0.2,0.4-0.5,0.4-0.5c-0.4-0.7-1.1-1.8-1.6-2.4
		c-0.4-0.6-1.6-1-2.2-1.3c-0.5-0.2-0.9-0.1-1.1-0.3c0,0,0,0,0,0c0-0.2-0.1-0.6-0.2-0.9c0-0.1-0.1-0.2-0.1-0.4c0-0.1,0.2-0.2,0.5-0.3
		c0.2-0.1,0.2-0.2,0.2-0.3c0-0.1,0-0.1,0.5-0.2c0.4-0.1,0.7-0.2,0.6-0.3c-0.1-0.1,0.2-0.3,0.5-0.3c0.3,0,0.4,0.2,0.4,0.2
		s0.2-0.2,0.3-0.3c0.1-0.2,0.2-0.2,0.1-0.5c-0.1-0.3-0.3-0.6-0.3-0.9c0-0.3,0.3-0.7,0.3-0.7c-0.2-0.8-1.1-1.5-1.4-1.7
		c-0.3-0.2-0.4-0.6-0.7-2c-0.3-1.4-2-2.3-2.4-2.6c-0.4-0.2-0.5,0.1-0.5,0.1c-0.5-0.4-1.6,0.5-2.2,1c-0.6,0.5-1.7,2.4-1.8,3.1
		c-0.1,0.6-0.4,1.6-0.6,2c-0.2,0.4-0.4,0.5-0.1,0.5c0.3,0,0.2,0.4,0.1,0.7c-0.1,0.3,0.1,0.5,0.2,0.4c0.2,0,0.2,0,0.2,0.3
		c0,0.3,0.7,1,0.8,1.1c-0.3,0.4-0.5,0.8-0.6,1.1c0,0.1,0,0.2,0,0.2c-0.2,0-1.4,0.2-2.1,0.4c-0.8,0.3-1.9,0.5-2.7,1.3
		c-0.7,0.8-1.3,1.6-1.3,2.2c0,0.6,0.2,0.9,0.2,0.9c0,1.3-0.1,2.4-0.4,3.5c-0.2,1.1-0.3,1.7-0.3,2.3c0,0.6-0.4,1.9-0.6,3.2
		c-0.2,1.3,0,2.9,0.2,4.6c0.1,1.8-0.1,2.9-0.2,3.6c-0.1,0.8,0.2,0.8,0.4,1.1c0.2,0.4,1.6,2.1,1.6,2.1s0,0.4,0.7,2.9
		c0.7,2.5,1.1,4.6,1.1,7c0,2.4,0.7,0.8,0.7,3.6c0,2.8-0.3,1.2-0.3,4.1c0,2.9,0.1,2,0.6,3.2c0.5,1.2,0.5,2.2,0.5,4.1
		c0,1.9,0.3,1.9,0.3,1.9c-1.2,1.5-0.4,1.4-0.4,1.4l2,0.1c0.4,1.6,2.3,1.1,3.1,1.1c0.8,0,0.5-0.6,0.5-0.6c0.6-0.1,0.6-0.5,0.6-0.5
		s0-1.7,0-3.9c0-2.2,1.4-5.8,1.5-7.2c0-1.4,0.2-4.8,0.7-8.3c0.5-3.5,2.1-7.1,1.8-10.2c-0.3-2.9-0.8-5-1.1-8.2c0.4,1.1,1,2.7,1.7,4
		c0,0,1,0.4,1.1,0.8c0.1,0.8,0,1.3-0.1,1.6c-0.1,0.3-0.2,0.4-0.5,1.8c0,0.2,0,0.4,0,0.5c-0.1,0-0.2,0-0.3,0
		c-0.2,0.1-0.4,0.3,0.2,0.9c0.4,0.3,0.8,0.8,1.1,1c0,0.2-0.1,0.3-0.2,0.5c-0.2,0.7,0.1,0.6,0.4,0.4l0,13.8c0,0,0,0,0,0
		c-0.2,0.2-0.3,0.4-0.6,0.6c-0.3,0.2-0.3,0.2-0.5,0.5c-0.2,0.3-0.5,0.7-0.5,1.2c0,0.5-0.2-0.1-0.5,0.6c-0.3,0.6-0.7,1.5-0.9,3.1
		c0,0.1,2.1,0.7,2.2,0.1c0.1-0.6,0.1-0.6,0.1-0.6s0.3,0.5,0.4,1c0.1,0.5,0.6,2.1,0.5,2.6c-0.1,0.5-0.1,0.6,0,0.7
		c0.2,0.1,0.3,0.1,0.3,0.3c0,0.2-0.2,0.5-0.1,0.7c0.2,0.1,0.8,0.2,0.8,0.5c0,0.2-0.3,0.5,0,0.5s-0.4,0.4-0.3,0.5
		c0,0.1,0,0.1,0.1,0.3c0.1,0.2,0.1,0.1,0.1,0.4c0,0.3,0.2,0.4,0,0.7c-0.1,0.3-0.5,0.8-0.5,1c0,0.1,0.4,0.2,1.3,0.4
		c0.9,0.1,1.4,0.7,1.7,0.2c0.3-0.5,0.2-0.4,0.5-0.5c0.3,0,0.6,0.1,1.2,0c0.7-0.1,0.7-0.1,0.7-0.1s0.7,0.4,1.2,0.5
		c0.5,0.1,0.7,0.1,0.6-0.4c-0.1-0.5,0.1-1,0.2-1.2c0-0.3,0-0.3,0-0.6c0-0.3,0.2,0.1,0-0.3c-0.2-0.5-0.2-0.5-0.2-0.5s0.2-0.2,0.3-0.3
		c0.1-0.1,0,0.6,0.1-0.1c0.1-0.8,0-0.6,0.1-1c0.1-0.3,0.1-0.1,0.1-0.3c0-0.2,0-0.3,0-0.5c0-0.2,0.2-0.2,0.1-0.6
		c-0.1-0.4-0.2-0.4-0.2-0.6C73.5,62.9,74,62.5,74,62.2z M50.6,28.5c-0.5,2.1-0.8,5.6-0.8,5.6c-0.9-1.7-0.8-3.4-0.5-5.1
		c0.3-1.7,0.4-1.6,0.5-3.5c0.1-1.9,0.6-3,0.8-3.4c0.1-0.4,0.2-0.7,0.2-0.5c0,0.2,0,1.1,0.3,1.9C51.4,24.2,51.1,26.4,50.6,28.5z
		 M55.3,50.6c0,0,0.1-3.7-0.1-5.5c-0.2-1.8,0.9-5.2,0.9-5.2C56.8,42.9,55.3,50.6,55.3,50.6z"/>
	<path class="st82" d="M80.8,13.5c-1-0.4-1.9-0.8-2.8-1.3L77.2,11c-0.2-0.8-0.1-1.6-0.7-2.4c-0.2-1.1-1-3.7-2.3-3.9l-0.7-0.2
		c-0.8-0.1-2,0.5-3,1.6c-0.8,0.9-1.4,2.3-1.9,3.4c-0.2,0.4,0,0.9,0.2,1.3c0.7,1.1,1.8,2.1,3.1,3.1c0.3,0.2,0.5,0.4,0.8,0.7l-0.7,0.4
		c-1.2,0.7-2,1.3-2.4,1.8c-0.7,1-0.9,6-1,7.3c-0.1,1.3-0.3,2.5-0.6,3.5c-0.3,1-0.4,2.2-0.3,3.5l0,0.6c-0.2,0.1-0.2,0.5,0,0.6
		c0.1,0.1,0.2,0.3,0.1,0.4c-0.2,0.3-0.4-1.8-0.4-0.9c-0.3,0.3-0.3,0.5-0.2,0.7c-0.2,0.5-0.2,0.9-0.1,1.3c0.5,0.5,0.6,1.2,0.4,2
		c-0.1,0.4,0.2,0.6,0.6,0.6l0.7,1.8c0.2,1.1,0.7,2.1,1.3,3.2c0.6,2.3,1,4.4,1.3,6.5c0.1,0.8,0.3,1.6,0.7,2.3
		c0.2,0.9,0.4,1.8,0.4,2.7c0.1,0.9,0.2,1.8,0.4,2.6c0.2,1,1.2,4.6,0.8,5.4c-0.2,0.2-0.1,0.4,0.1,0.6c0.3,0.1,0.6,0.6,0.3,0.8
		c-0.2,0.1-0.1,0.5,0.2,0.6c0.2,0.1,0.3,0.3,0.3,0.5c-0.3,0.5-0.6,0.9-0.9,1.3c-0.1,0.1-0.3,0.2-0.5,0.3c-0.5,0.1-0.8,0.4-0.9,1.1
		c0,0.1,0.1,0.2,0.2,0.2c1.6,0.1,3.2,0.1,4.8,0c0.5-0.1,0.5-0.8,0.1-2.1c0.1-0.3,0.1-0.5-0.1-0.5l0.1-0.5c0.2-0.1,0.3-0.3,0-0.7
		c-0.1-0.1-0.1-0.3-0.1-0.5c0.2-0.2,0.2-0.6,0-1.2L77,60.3l-0.2-3c-0.1-1.9-0.2-3.7-0.6-5c-0.2-0.9,0-1.6-0.1-2.5
		c-0.1-1.9-0.3-3.8-0.5-5.7c0.1-0.8,0.1-1.6-0.1-2c-0.2-0.5-0.2-0.9-0.1-1.2c0.1-0.2,0.2,0,0.3,0.5c0.1,0.4,0.2,0.7,0.5,1.1l0.8,3.8
		l0.4,1.2c-0.1,0.3-0.1,0.5-0.1,0.7c0.1,0.1,0.1,0.2,0,0.3c-0.2,0.3-0.1,0.5,0.1,0.7c0.3,0.2,0.4,0.4,0.2,0.6
		c-0.3,0.3-0.2,0.8,0.2,1.4c0.2,0.3,0.3,0.6,0.2,0.9c-0.3,0.3-0.4,1.3-0.4,2.8c0.1,1.8,0,3.2-0.2,4.4c-0.2,0.8-0.2,1.2,0,1.3
		c0.2,0.1,0.2,0.3,0.1,0.5c-0.1,0.3-0.2,0.7-0.1,1.2c-0.1,0.3-0.1,0.5,0.1,0.7c0.2,0.1,0.2,0.3,0.1,0.4c-0.1,0.2-0.1,0.3,0.1,0.5
		l0.1,0.2c-0.1,0.3-0.5,2.1,0.2,2.1c0.6,0,5.3,0.3,5.3-0.2c0.1-0.6-0.4-1.1-1.3-1.1c-0.4-0.2-0.7-0.5-1-0.8
		c-0.1-0.4-0.2-0.6-0.4-0.7c0.1-0.3,0-0.5-0.2-0.7c-0.2-0.1-0.1-0.2,0.1-0.3c0.4-0.2,0.5-0.6,0.1-0.8c-0.3-0.1-0.3-0.5-0.1-0.7
		c0.3-0.3,0.4-0.6,0.2-0.9l-0.2-0.3c0.2-0.3,0.4-0.6,0.5-0.9c0.3-2,0.3-4.4,0.5-6.5c0-0.6,0-1.2-0.1-1.8c-0.1-0.3-0.1-0.5-0.1-0.8
		c0-0.3,0.3-0.6-0.1-0.8c-0.1-0.1-0.2-0.2-0.1-0.4c0.1-0.4,0.4-0.5,0.1-1c-0.1-0.2-0.1-0.8-0.1-1.7c0.2-3,0.1-5.2-0.1-6.7
		c-0.1-0.6-0.2-1.1-0.2-1.7c0.3-0.2,0.4-0.5,0.3-0.9c-0.2-0.7,0-1.3,0.6-1.7c0.5-0.1,0.8-0.4,1.1-0.9l0.6-1.2
		c0.5-0.4,0.8-0.7,0.8-1.1l0.1,0.5c0.2-0.3,0.2-0.6,0.1-1c-0.1-0.3-0.1-0.6,0-0.9c0.2-0.2,0.4-0.8,0.3-2c-0.1-2.5-0.3-9-1.4-11.8
		C83,14.6,81.9,14,80.8,13.5z"/>
</g>
</svg>
